<svg width="20" height="20" viewBox="0 0 20 20" fill="none" xmlns="http://www.w3.org/2000/svg">
<path d="M14.5834 10.8333C11.5967 10.8333 9.16675 8.40333 9.16675 5.41667C9.16675 2.43 11.5967 0 14.5834 0C17.5701 0 20.0001 2.43 20.0001 5.41667C20.0001 8.40333 17.5701 10.8333 14.5834 10.8333ZM14.5834 0.833333C12.0559 0.833333 10.0001 2.88917 10.0001 5.41667C10.0001 7.94417 12.0559 10 14.5834 10C17.1109 10 19.1667 7.94417 19.1667 5.41667C19.1667 2.88917 17.1109 0.833333 14.5834 0.833333Z" fill="black"/>
<path d="M14.5834 8.33333C14.3534 8.33333 14.1667 8.14667 14.1667 7.91667V2.91667C14.1667 2.68667 14.3534 2.5 14.5834 2.5C14.8134 2.5 15.0001 2.68667 15.0001 2.91667V7.91667C15.0001 8.14667 14.8134 8.33333 14.5834 8.33333Z" fill="black"/>
<path d="M17.0834 5.83333H12.0834C11.8534 5.83333 11.6667 5.64667 11.6667 5.41667C11.6667 5.18667 11.8534 5 12.0834 5H17.0834C17.3134 5 17.5001 5.18667 17.5001 5.41667C17.5001 5.64667 17.3134 5.83333 17.0834 5.83333Z" fill="black"/>
<path d="M16.2501 14.1667H5.41677C5.21844 14.1667 5.04761 14.0267 5.00844 13.8317L3.34177 5.49833C3.31677 5.37583 3.34927 5.24917 3.42761 5.1525C3.50677 5.05583 3.62511 5 3.75011 5H7.08344C7.31344 5 7.50011 5.18667 7.50011 5.41667C7.50011 5.64667 7.31344 5.83333 7.08344 5.83333H4.25844L5.75844 13.3333H15.9084L16.1393 12.1792C16.1843 11.9533 16.4034 11.8058 16.6293 11.8525C16.8551 11.8975 17.0009 12.1167 16.9559 12.3425L16.6584 13.8317C16.6193 14.0267 16.4484 14.1667 16.2501 14.1667Z" fill="black"/>
<path d="M5.41667 14.1667C5.2225 14.1667 5.04833 14.03 5.00833 13.8317L2.9425 3.50337C2.82583 2.92087 2.31 2.49837 1.71667 2.49837L0.416667 2.50004C0.186667 2.50004 0 2.31337 0 2.08337C0 1.85337 0.185833 1.66671 0.416667 1.66671L1.715 1.66504H1.71667C2.70667 1.66504 3.56583 2.36921 3.76 3.34004L5.825 13.6684C5.87 13.8942 5.72333 14.1134 5.49833 14.1584C5.47083 14.1642 5.44333 14.1667 5.41667 14.1667Z" fill="black"/>
<path d="M17.9167 15.8334H3.75C3.06083 15.8334 2.5 15.2725 2.5 14.5834C2.5 13.8942 3.06083 13.3334 3.75 13.3334H5.41667C5.64667 13.3334 5.83333 13.52 5.83333 13.75C5.83333 13.98 5.64667 14.1667 5.41667 14.1667H3.75C3.52 14.1667 3.33333 14.3534 3.33333 14.5834C3.33333 14.8134 3.52 15 3.75 15H17.9167C18.1467 15 18.3333 15.1867 18.3333 15.4167C18.3333 15.6467 18.1467 15.8334 17.9167 15.8334Z" fill="black"/>
<path d="M6.66667 20C5.7475 20 5 19.2525 5 18.3333C5 17.4141 5.7475 16.6666 6.66667 16.6666C7.58583 16.6666 8.33333 17.4141 8.33333 18.3333C8.33333 19.2525 7.58583 20 6.66667 20ZM6.66667 17.5C6.2075 17.5 5.83333 17.8741 5.83333 18.3333C5.83333 18.7925 6.2075 19.1666 6.66667 19.1666C7.12583 19.1666 7.5 18.7925 7.5 18.3333C7.5 17.8741 7.12583 17.5 6.66667 17.5Z" fill="black"/>
<path d="M14.1667 20C13.2475 20 12.5 19.2525 12.5 18.3333C12.5 17.4141 13.2475 16.6666 14.1667 16.6666C15.0858 16.6666 15.8333 17.4141 15.8333 18.3333C15.8333 19.2525 15.0858 20 14.1667 20ZM14.1667 17.5C13.7075 17.5 13.3333 17.8741 13.3333 18.3333C13.3333 18.7925 13.7075 19.1666 14.1667 19.1666C14.6258 19.1666 15 18.7925 15 18.3333C15 17.8741 14.6258 17.5 14.1667 17.5Z" fill="black"/>
</svg>
