<svg width="20" height="20" viewBox="0 0 20 20" fill="none" xmlns="http://www.w3.org/2000/svg">
<path d="M14.7993 7.06661C14.535 6.80218 14.1333 6.80218 13.8639 7.06657L8.73427 12.1962L6.13637 9.59839C5.87203 9.33404 5.47037 9.33404 5.20095 9.59839C4.9366 9.86274 4.9366 10.2644 5.20095 10.5338L8.2665 13.5994C8.39869 13.7316 8.53084 13.7976 8.73423 13.7976C8.9325 13.7976 9.06977 13.7316 9.20196 13.5994L14.7993 8.00204C15.0637 7.73769 15.0637 7.33611 14.7993 7.06661Z" fill="black"/>
<path d="M10 0C4.46879 0 0 4.46363 0 10C0 15.5364 4.46363 20 10 20C15.5364 20 20 15.5364 20 10C20 4.46363 15.5313 0 10 0ZM10 18.6629C5.20079 18.6629 1.33704 14.7992 1.33704 9.99996C1.33704 5.20075 5.20083 1.337 10 1.337C14.7992 1.337 18.663 5.20075 18.663 9.99996C18.663 14.7992 14.7992 18.6629 10 18.6629Z" fill="black"/>
</svg>
