<svg width="20" height="20" viewBox="0 0 20 20" fill="none" xmlns="http://www.w3.org/2000/svg">
<path d="M19.5891 17.5056H7.04256C6.84917 16.5553 6.00723 15.8384 5.00107 15.8384C3.99491 15.8384 3.15297 16.5553 2.95958 17.5056H0.416257C-0.135588 17.5056 -0.134755 18.3392 0.416257 18.3392H2.95958C3.15297 19.2895 3.99491 20.0064 5.00107 20.0064C6.00723 20.0064 6.84917 19.2895 7.04256 18.3392H19.5891C20.141 18.3392 20.1401 17.5056 19.5891 17.5056ZM5.00107 19.1728C4.31168 19.1728 3.75067 18.6118 3.75067 17.9224C3.75067 17.233 4.31168 16.672 5.00107 16.672C5.69046 16.672 6.25147 17.233 6.25147 17.9224C6.25147 18.6118 5.69046 19.1728 5.00107 19.1728Z" fill="black"/>
<path d="M19.5891 9.58652H17.0458C16.8524 8.63621 16.0105 7.91931 15.0043 7.91931C13.9981 7.91931 13.1562 8.63621 12.9628 9.58652H0.416257C-0.135588 9.58652 -0.134755 10.4201 0.416257 10.4201H12.9628C13.1562 11.3704 13.9981 12.0873 15.0043 12.0873C16.0105 12.0873 16.8524 11.3704 17.0458 10.4201H19.5891C20.141 10.4201 20.1401 9.58652 19.5891 9.58652ZM15.0043 11.2537C14.3149 11.2537 13.7539 10.6927 13.7539 10.0033C13.7539 9.31393 14.3149 8.75291 15.0043 8.75291C15.6937 8.75291 16.2547 9.31393 16.2547 10.0033C16.2547 10.6927 15.6937 11.2537 15.0043 11.2537Z" fill="black"/>
<path d="M0.416257 2.50081H7.12759C7.32099 3.45111 8.16292 4.16801 9.16908 4.16801C10.1752 4.16801 11.0172 3.45111 11.2106 2.50081H19.5891C20.141 2.50081 20.1401 1.6672 19.5891 1.6672H11.2106C11.0172 0.716898 10.1752 0 9.16908 0C8.16292 0 7.32099 0.716898 7.12759 1.6672H0.416257C-0.135588 1.6672 -0.134755 2.50081 0.416257 2.50081ZM9.16908 0.833602C9.85847 0.833602 10.4195 1.39462 10.4195 2.08401C10.4195 2.7734 9.85847 3.33441 9.16908 3.33441C8.47969 3.33441 7.91868 2.7734 7.91868 2.08401C7.91868 1.39462 8.47969 0.833602 9.16908 0.833602Z" fill="black"/>
</svg>
