<svg width="21" height="17" viewBox="0 0 21 17" fill="none" xmlns="http://www.w3.org/2000/svg">
<path d="M15.833 4.16561C15.5441 3.01073 14.8777 1.98547 13.9395 1.25264C13.0013 0.519811 11.8452 0.12142 10.6547 0.120728C9.46422 0.120037 8.30764 0.517086 7.36861 1.24883C6.42957 1.98056 5.76192 3.00505 5.47166 4.1596C4.10251 4.28809 2.83547 4.93907 1.93374 5.97733C1.03201 7.01559 0.5649 8.36131 0.629432 9.73496C0.693963 11.1086 1.28518 12.4046 2.28027 13.3538C3.27536 14.3029 4.59785 14.8322 5.97302 14.8318H7.97845C8.15574 14.8318 8.32577 14.7614 8.45113 14.636C8.57649 14.5107 8.64692 14.3406 8.64692 14.1633C8.64692 13.9861 8.57649 13.816 8.45113 13.6907C8.32577 13.5653 8.15574 13.4949 7.97845 13.4949H5.97302C5.4463 13.4964 4.92444 13.3942 4.43724 13.194C3.95003 12.9939 3.50701 12.6997 3.13349 12.3284C2.37911 11.5784 1.95356 10.5595 1.95046 9.49571C1.94736 8.43196 2.36695 7.41055 3.11694 6.65618C3.86693 5.9018 4.88587 5.47625 5.94962 5.47315C6.12115 5.48606 6.29135 5.4348 6.42722 5.32932C6.56309 5.22384 6.65494 5.07164 6.68494 4.90227C6.82106 3.94773 7.29699 3.07434 8.02532 2.4425C8.75365 1.81067 9.68548 1.46281 10.6497 1.46281C11.6139 1.46281 12.5457 1.81067 13.274 2.4425C14.0024 3.07434 14.4783 3.94773 14.6144 4.90227C14.6494 5.06576 14.74 5.21205 14.8708 5.31616C15.0016 5.42028 15.1645 5.47576 15.3317 5.47315C16.3954 5.47315 17.4156 5.89572 18.1678 6.6479C18.92 7.40009 19.3425 8.42026 19.3425 9.48401C19.3425 10.5478 18.92 11.5679 18.1678 12.3201C17.4156 13.0723 16.3954 13.4949 15.3317 13.4949H13.3263C13.149 13.4949 12.9789 13.5653 12.8536 13.6907C12.7282 13.816 12.6578 13.9861 12.6578 14.1633C12.6578 14.3406 12.7282 14.5107 12.8536 14.636C12.9789 14.7614 13.149 14.8318 13.3263 14.8318H15.3317C16.6968 14.8175 18.0048 14.2817 18.9875 13.3342C19.9703 12.3866 20.5535 11.0991 20.6176 9.73539C20.6817 8.37171 20.2219 7.03515 19.3323 5.99959C18.4427 4.96403 17.1908 4.30788 15.833 4.16561Z" fill="#2D2D2D"/>
<path d="M13.5218 9.95659C13.6479 10.0784 13.8168 10.1457 13.992 10.1442C14.1673 10.1427 14.335 10.0724 14.4589 9.94845C14.5828 9.82451 14.6532 9.65685 14.6547 9.48158C14.6562 9.3063 14.5888 9.13744 14.4671 9.01137L11.1247 5.66899C10.9993 5.54367 10.8293 5.47327 10.6521 5.47327C10.4748 5.47327 10.3048 5.54367 10.1794 5.66899L6.83706 9.01137C6.71529 9.13744 6.64792 9.3063 6.64944 9.48158C6.65096 9.65685 6.72127 9.82451 6.84521 9.94845C6.96915 10.0724 7.13681 10.1427 7.31208 10.1442C7.48735 10.1457 7.65621 10.0784 7.78229 9.95659L9.98358 7.7553V16.1687C9.98358 16.346 10.054 16.5161 10.1794 16.6414C10.3047 16.7668 10.4748 16.8372 10.6521 16.8372C10.8293 16.8372 10.9994 16.7668 11.1247 16.6414C11.2501 16.5161 11.3205 16.346 11.3205 16.1687V7.7553L13.5218 9.95659Z" fill="#2D2D2D"/>
</svg>
