<svg width="20" height="20" viewBox="0 0 20 20" fill="none" xmlns="http://www.w3.org/2000/svg">
<path d="M11.1687 10.9806L11.2457 10.2883C11.4627 10.194 11.6674 10.0756 11.8579 9.93421L12.4966 10.214C12.6788 10.2939 12.8921 10.2239 12.9916 10.0515L13.7729 8.69839C13.8724 8.52601 13.8264 8.30636 13.6661 8.18843L13.1044 7.77523C13.1309 7.5407 13.1309 7.30296 13.1044 7.06843L13.6661 6.65523C13.8264 6.53726 13.8724 6.31765 13.7729 6.14527L12.9916 4.7921C12.8921 4.61972 12.6789 4.54976 12.4966 4.6296L11.8579 4.90941C11.6674 4.768 11.4627 4.64964 11.2457 4.55535L11.1687 3.863C11.1468 3.66519 10.9795 3.5155 10.7805 3.5155H9.21805C9.01899 3.5155 8.8518 3.66515 8.82985 3.863L8.7529 4.55535C8.53595 4.6496 8.33122 4.768 8.14067 4.90941L7.502 4.6296C7.31977 4.5498 7.10645 4.6198 7.00696 4.7921L6.22571 6.14527C6.12618 6.31765 6.1722 6.5373 6.33251 6.65523L6.89419 7.06839C6.86762 7.30312 6.86759 7.54035 6.89423 7.77519L6.33251 8.18843C6.1722 8.3064 6.12618 8.52605 6.22571 8.69839L7.00696 10.0515C7.10645 10.2239 7.31973 10.2939 7.502 10.214L8.14059 9.93421C8.3311 10.0756 8.53587 10.194 8.7529 10.2883L8.82985 10.9806C8.8518 11.1784 9.01903 11.3281 9.21805 11.3281H10.7805C10.9795 11.3281 11.1467 11.1785 11.1687 10.9806ZM10.4953 9.96683L10.4309 10.5469H9.56763L9.50317 9.96687C9.48645 9.81648 9.38442 9.68929 9.24122 9.64039C8.95243 9.54175 8.68887 9.38929 8.45786 9.18734C8.34384 9.08773 8.18263 9.06292 8.04399 9.12363L7.50868 9.35816L7.07708 8.61058L7.54747 8.26453C7.66919 8.17496 7.72837 8.0232 7.69938 7.87488C7.64091 7.57695 7.64095 7.26644 7.69931 6.96882C7.72837 6.8205 7.66919 6.66867 7.54743 6.5791L7.07708 6.23308L7.50868 5.4855L8.04403 5.72003C8.18263 5.78074 8.34388 5.75597 8.45782 5.6564C8.68907 5.45433 8.95263 5.30187 9.24118 5.20335C9.38438 5.15445 9.48645 5.02722 9.50317 4.87683L9.56763 4.29679H10.4309L10.4953 4.87683C10.512 5.02722 10.6141 5.15441 10.7573 5.20332C11.046 5.30195 11.3095 5.45437 11.5406 5.65636C11.6546 5.75593 11.8158 5.7807 11.9545 5.72003L12.4898 5.4855L12.9214 6.23308L12.4511 6.5791C12.3293 6.66867 12.2701 6.82046 12.2992 6.96882C12.3575 7.26585 12.3575 7.57781 12.2992 7.87484C12.2701 8.02316 12.3293 8.175 12.4511 8.26457L12.9214 8.61058L12.4898 9.35812L11.9545 9.12359C11.8159 9.06285 11.6546 9.08769 11.5407 9.18726C11.3095 9.38929 11.0459 9.54171 10.7573 9.64035C10.6141 9.68921 10.512 9.81644 10.4953 9.96683Z" fill="black"/>
<path d="M9.99927 6.05463C9.2454 6.05463 8.63208 6.66795 8.63208 7.42181C8.70083 9.23306 11.298 9.2326 11.3665 7.42181C11.3665 6.66795 10.7531 6.05463 9.99927 6.05463ZM9.99927 8.00775C9.67618 8.00775 9.41333 7.7449 9.41333 7.42181C9.44278 6.64556 10.5559 6.64576 10.5852 7.42181C10.5852 7.7449 10.3224 8.00775 9.99927 8.00775Z" fill="black"/>
<path d="M19.9991 9.99999C19.9991 9.87542 19.9397 9.75831 19.8392 9.68476L18.5083 8.71093L19.8392 7.73711C20.0501 7.59137 20.05 7.25234 19.8392 7.1066L10.2298 0.0753806C10.0925 -0.0251269 9.90582 -0.0251269 9.76847 0.0753806L0.159135 7.1066C-0.0517625 7.25234 -0.0517234 7.59137 0.159135 7.73711L1.49007 8.71093L0.159135 9.68476C-0.0517625 9.83046 -0.0517234 10.1695 0.159135 10.3153L1.49003 11.2891L0.159135 12.2629C-0.0517625 12.4087 -0.0517234 12.7477 0.159135 12.8934L9.76847 19.9246C9.90582 20.0251 10.0925 20.0251 10.2298 19.9246L19.8392 12.8934C20.0501 12.7477 20.05 12.4087 19.8392 12.2629L18.5083 11.2891L19.8392 10.3153C19.9397 10.2417 19.9991 10.1246 19.9991 9.99999ZM9.99917 0.874635L18.947 7.42184L9.99917 13.969L1.05136 7.42184L9.99917 0.874635ZM18.947 12.5781L9.99917 19.1253L1.05136 12.5781L2.15159 11.7731L9.76851 17.3465C9.90585 17.447 10.0925 17.447 10.2299 17.3465L17.8468 11.7731L18.947 12.5781ZM9.99917 16.5472L1.05136 9.99999L2.15163 9.19495L9.76855 14.7683C9.90589 14.8688 10.0925 14.8688 10.2299 14.7683L17.8468 9.19492L18.9471 9.99995L9.99917 16.5472Z" fill="black"/>
</svg>
