<svg width="20" height="20" viewBox="0 0 20 20" fill="none" xmlns="http://www.w3.org/2000/svg">
<g clip-path="url(#clip0_251_612)">
<path d="M18.8 19.2H4.66005C4.44005 19.2 4.26005 19.02 4.26005 18.8V15.74H1.20005C0.980049 15.74 0.800049 15.56 0.800049 15.34V1.19999C0.800049 0.979988 0.980049 0.799988 1.20005 0.799988H15.34C15.56 0.799988 15.74 0.979988 15.74 1.19999V4.25999H18.8C19.0201 4.25999 19.2 4.43999 19.2 4.65999V18.8C19.2 19.02 19.0201 19.2 18.8 19.2ZM5.06005 18.4H18.4V5.05999H15.74V15.32C15.74 15.54 15.56 15.72 15.34 15.72H5.06005V18.4ZM4.66005 14.94H14.94V1.59999H1.60005V14.94H4.66005Z" fill="black"/>
</g>
<defs>
<clipPath id="clip0_251_612">
<rect width="20" height="20" fill="white"/>
</clipPath>
</defs>
</svg>
