<svg width="20" height="20" viewBox="0 0 20 20" fill="none" xmlns="http://www.w3.org/2000/svg">
<g clip-path="url(#clip0_251_599)">
<path d="M20 9.9995C20 9.52406 19.7479 9.09081 19.3244 8.83956L18.2107 8.18437C18.6398 7.92963 19.0221 7.70241 19.3253 7.52198C19.7479 7.26984 20 6.83659 20 6.36293C20 5.88928 19.7479 5.45603 19.3253 5.20342C17.9332 4.37552 13.2129 1.57039 10.886 0.236453C10.3471 -0.0729648 9.69193 -0.0853654 9.10952 0.239138C9.10952 0.239138 2.78139 3.95607 0.675554 5.20303C0.252145 5.45424 0 5.88749 0 6.36293C0 6.83659 0.252145 7.26984 0.674702 7.52245C0.977898 7.70275 1.36014 7.92992 1.78905 8.18454L0.675597 8.83956C0.252145 9.09081 0 9.52406 0 9.9995C0 10.4732 0.252145 10.9064 0.674702 11.159C0.977898 11.3393 1.36014 11.5665 1.78905 11.8211L0.675597 12.4761C0.252145 12.7274 0 13.1606 0 13.6361C0 14.1097 0.252145 14.543 0.674702 14.7956C2.47602 15.8667 6.90341 18.4952 9.114 19.7625C9.38477 19.9179 9.69197 20 10 20C10.3081 20 10.6153 19.9179 10.8869 19.7621C13.0966 18.4951 17.524 15.8667 19.3253 14.7951C19.7479 14.543 20 14.1097 20 13.6361C20 13.1606 19.7479 12.7274 19.3244 12.4761L18.2108 11.8209C18.6398 11.5662 19.0221 11.339 19.3253 11.1585C19.7479 10.9064 20 10.4732 20 9.9995ZM1.13992 6.74232C1.07067 6.7006 0.909077 6.58073 0.909077 6.3637C0.909077 6.14573 1.06977 6.0268 1.13902 5.98593C3.24218 4.74038 9.56144 1.02898 9.56055 1.02941C9.84998 0.866496 10.166 0.872718 10.4341 1.0263C12.7548 2.35665 17.4707 5.1585 18.8601 5.98504C18.9293 6.02676 19.0909 6.14663 19.0909 6.36366C19.0909 6.58069 18.9293 6.70056 18.8601 6.74186C17.0614 7.81163 12.6394 10.4373 10.435 11.7006C10.1616 11.8569 9.83754 11.8564 9.56587 11.701C7.36062 10.4373 2.93855 7.81167 1.13992 6.74232ZM18.861 13.2586C18.9302 13.2995 19.0909 13.4184 19.0909 13.6364C19.0909 13.8535 18.9293 13.9733 18.8601 14.0146C17.0614 15.0844 12.6394 17.71 10.435 18.9733C10.1616 19.1296 9.83754 19.1291 9.56587 18.9738C7.36062 17.71 2.93855 15.0844 1.13992 14.015C1.07067 13.9733 0.909077 13.8534 0.909077 13.6364C0.909077 13.4184 1.06977 13.2995 1.13902 13.2586L2.68159 12.3509C4.76659 13.5868 7.51697 15.2106 9.114 16.1262C9.38477 16.2815 9.69197 16.3636 10 16.3636C10.3081 16.3636 10.6153 16.2815 10.8869 16.1257C12.4833 15.2105 15.2334 13.5869 17.3183 12.3509L18.861 13.2586ZM18.8601 10.3783C17.0614 11.448 12.6394 14.0737 10.435 15.337C10.1616 15.4933 9.83754 15.4928 9.56587 15.3374C7.36062 14.0736 2.93855 11.448 1.13992 10.3787C1.07067 10.337 0.909077 10.2171 0.909077 10.0001C0.909077 9.78209 1.06977 9.66315 1.13902 9.62228L2.68159 8.71457C4.76659 9.95041 7.51697 11.5742 9.114 12.4898C9.38477 12.6452 9.69197 12.7273 10 12.7273C10.3081 12.7273 10.6153 12.6452 10.8869 12.4894C12.4833 11.5741 15.2334 9.95054 17.3183 8.71453L18.861 9.62228C18.9303 9.66311 19.091 9.78209 19.091 10.0001C19.0909 10.2171 18.9293 10.337 18.8601 10.3783Z" fill="#2D2D2D"/>
</g>
<defs>
<clipPath id="clip0_251_599">
<rect width="20" height="20" fill="white"/>
</clipPath>
</defs>
</svg>
