<svg width="20" height="18" viewBox="0 0 20 18" fill="none" xmlns="http://www.w3.org/2000/svg">
<path d="M19.9719 9.70436C19.9719 9.70426 19.9719 9.70421 19.9718 9.70411L16.1958 0.246937C16.1156 0.0459963 15.8873 -0.0520999 15.6858 0.0278358C15.6857 0.0278847 15.6855 0.0279337 15.6854 0.0280316L0.366301 6.11235C0.303828 6.13927 0.249648 6.18225 0.209259 6.23688C0.0818583 6.30291 0.00137412 6.43361 0 6.57679V16.7584C0 16.9747 0.175789 17.15 0.392606 17.15H16.882C17.0989 17.15 17.2746 16.9747 17.2746 16.7584V11.1977L19.7528 10.2132C19.9542 10.1331 20.0523 9.90525 19.9719 9.70436ZM16.4894 16.3668H0.785211V6.96839H16.4894V16.3668ZM6.55063 6.18714L13.1244 3.57438C13.7111 4.18948 14.5241 4.53909 15.3752 4.54242L16.0309 6.18714H6.55063ZM17.2746 10.3565V6.57679C17.2746 6.36052 17.0989 6.18518 16.882 6.18518H16.8758L16.0438 4.10108C16.0346 4.0837 16.0239 4.06716 16.0116 4.05174C15.9695 3.86313 15.7944 3.73444 15.6014 3.7502C14.8094 3.82221 14.0346 3.48945 13.5429 2.86597C13.4206 2.71535 13.2055 2.6779 13.0392 2.77825C13.0206 2.78045 13.0021 2.78388 12.9839 2.78843L4.95822 5.97607C4.8611 6.01405 4.78341 6.08939 4.74268 6.18518H2.30538L15.6116 0.90052L19.0975 9.63128L17.2746 10.3565Z" fill="#2D2D2D"/>
<path d="M1.85063 13.7231C2.61288 13.9479 3.20934 14.5421 3.43558 15.3021C3.4852 15.4679 3.63817 15.5816 3.8117 15.5817C3.83206 15.5804 3.85228 15.5774 3.87216 15.5727C3.88978 15.5776 3.90779 15.5813 3.92595 15.5836H13.3485C13.3647 15.5815 13.3807 15.5782 13.3964 15.5738C13.5925 15.6214 13.7902 15.5014 13.838 15.3058C13.8381 15.305 13.8383 15.3044 13.8385 15.3036C14.0641 14.5428 14.6607 13.9478 15.4234 13.7227C15.6084 13.6663 15.7233 13.4825 15.6927 13.292C15.698 13.273 15.7018 13.2536 15.7041 13.234V10.1012C15.7018 10.0816 15.6979 10.0622 15.6923 10.0432C15.7231 9.85268 15.6081 9.66872 15.423 9.61248C14.6603 9.38745 14.0639 8.79217 13.8388 8.03119C13.782 7.84542 13.5959 7.73049 13.4038 7.76255C13.3857 7.75751 13.3672 7.75384 13.3485 7.75159H3.92595C3.90617 7.75394 3.88659 7.75785 3.86745 7.76333C3.67649 7.73299 3.49226 7.84758 3.43558 8.03197C3.20978 8.79261 2.61327 9.38745 1.85063 9.61248C1.66567 9.66887 1.55073 9.85273 1.58131 10.0432C1.5762 10.0623 1.57252 10.0816 1.57031 10.1012V13.234C1.57257 13.2524 1.57625 13.2706 1.58131 13.2884C1.54911 13.4802 1.66429 13.6661 1.85063 13.7231ZM2.35552 10.2602C3.14388 9.94436 3.76871 9.32113 4.08534 8.53479H13.1887C13.5055 9.32113 14.1305 9.94436 14.9189 10.2602V13.075C14.1308 13.3912 13.5061 14.0143 13.1891 14.8004H4.08534C3.76836 14.0143 3.14363 13.3912 2.35552 13.075V10.2602Z" fill="#2D2D2D"/>
<path d="M8.63737 14.0172C9.93837 14.0172 10.993 12.9653 10.993 11.6676C10.993 10.3699 9.93837 9.31799 8.63737 9.31799C7.33638 9.31799 6.28174 10.3699 6.28174 11.6676C6.28301 12.9647 7.33692 14.0159 8.63737 14.0172ZM8.63737 10.1012C9.50469 10.1012 10.2078 10.8025 10.2078 11.6676C10.2078 12.5327 9.50469 13.234 8.63737 13.234C7.77006 13.234 7.06695 12.5327 7.06695 11.6676C7.06695 10.8025 7.77006 10.1012 8.63737 10.1012Z" fill="#2D2D2D"/>
<path d="M4.31864 12.255C4.64387 12.255 4.90755 11.992 4.90755 11.6676C4.90755 11.3432 4.64387 11.0802 4.31864 11.0802C3.99342 11.0802 3.72974 11.3432 3.72974 11.6676C3.72974 11.992 3.99342 12.255 4.31864 12.255ZM4.31864 11.4718C4.42705 11.4718 4.51495 11.5595 4.51495 11.6676C4.51495 11.7757 4.42705 11.8634 4.31864 11.8634C4.21024 11.8634 4.12234 11.7757 4.12234 11.6676C4.12234 11.5595 4.21024 11.4718 4.31864 11.4718Z" fill="#2D2D2D"/>
<path d="M12.9561 12.255C13.2813 12.255 13.545 11.992 13.545 11.6676C13.545 11.3432 13.2813 11.0802 12.9561 11.0802C12.6309 11.0802 12.3672 11.3432 12.3672 11.6676C12.3672 11.992 12.6309 12.255 12.9561 12.255ZM12.9561 11.4718C13.0645 11.4718 13.1524 11.5595 13.1524 11.6676C13.1524 11.7757 13.0645 11.8634 12.9561 11.8634C12.8477 11.8634 12.7598 11.7757 12.7598 11.6676C12.7598 11.5595 12.8477 11.4718 12.9561 11.4718Z" fill="#2D2D2D"/>
</svg>
