<svg width="20" height="20" viewBox="0 0 20 20" fill="none" xmlns="http://www.w3.org/2000/svg">
<path d="M17.9167 15H15.4167C15.1867 15 15 14.8133 15 14.5833C15 14.3533 15.1867 14.1667 15.4167 14.1667H17.9167C18.6058 14.1667 19.1667 13.6058 19.1667 12.9167V7.08333C19.1667 6.39417 18.6058 5.83333 17.9167 5.83333H2.08333C1.39417 5.83333 0.833333 6.39417 0.833333 7.08333V12.9167C0.833333 13.6058 1.39417 14.1667 2.08333 14.1667H4.58333C4.81333 14.1667 5 14.3533 5 14.5833C5 14.8133 4.81333 15 4.58333 15H2.08333C0.934167 15 0 14.065 0 12.9167V7.08333C0 5.935 0.934167 5 2.08333 5H17.9167C19.0658 5 20 5.935 20 7.08333V12.9167C20 14.065 19.0658 15 17.9167 15Z" fill="#2D2D2D"/>
<path d="M12.0834 17.5001H7.08341C6.85341 17.5001 6.66675 17.3134 6.66675 17.0834C6.66675 16.8534 6.85341 16.6667 7.08341 16.6667H12.0834C12.3134 16.6667 12.5001 16.8534 12.5001 17.0834C12.5001 17.3134 12.3134 17.5001 12.0834 17.5001Z" fill="#2D2D2D"/>
<path d="M12.0834 15.8333H7.08341C6.85341 15.8333 6.66675 15.6467 6.66675 15.4167C6.66675 15.1867 6.85341 15 7.08341 15H12.0834C12.3134 15 12.5001 15.1867 12.5001 15.4167C12.5001 15.6467 12.3134 15.8333 12.0834 15.8333Z" fill="#2D2D2D"/>
<path d="M8.75008 14.1666H7.08341C6.85341 14.1666 6.66675 13.9799 6.66675 13.7499C6.66675 13.5199 6.85341 13.3333 7.08341 13.3333H8.75008C8.98008 13.3333 9.16675 13.5199 9.16675 13.7499C9.16675 13.9799 8.98008 14.1666 8.75008 14.1666Z" fill="#2D2D2D"/>
<path d="M15.4167 5.83333C15.1867 5.83333 15.0001 5.64667 15.0001 5.41667V2.08333C15.0001 1.39417 14.4392 0.833333 13.7501 0.833333H6.25008C5.56091 0.833333 5.00008 1.39417 5.00008 2.08333V5.41667C5.00008 5.64667 4.81341 5.83333 4.58341 5.83333C4.35341 5.83333 4.16675 5.64667 4.16675 5.41667V2.08333C4.16675 0.935 5.10091 0 6.25008 0H13.7501C14.8992 0 15.8334 0.935 15.8334 2.08333V5.41667C15.8334 5.64667 15.6467 5.83333 15.4167 5.83333Z" fill="#2D2D2D"/>
<path d="M13.7501 19.9999H6.25008C5.10091 19.9999 4.16675 19.0649 4.16675 17.9166V11.2499C4.16675 11.0199 4.35341 10.8333 4.58341 10.8333H15.4167C15.6467 10.8333 15.8334 11.0199 15.8334 11.2499V17.9166C15.8334 19.0649 14.8992 19.9999 13.7501 19.9999ZM5.00008 11.6666V17.9166C5.00008 18.6058 5.56091 19.1666 6.25008 19.1666H13.7501C14.4392 19.1666 15.0001 18.6058 15.0001 17.9166V11.6666H5.00008Z" fill="#2D2D2D"/>
</svg>
