<svg width="20" height="10" viewBox="0 0 20 10" fill="none" xmlns="http://www.w3.org/2000/svg">
<path d="M18.3333 0.833313H1.66667C0.75 0.833313 0 1.58331 0 2.49998V8.33331C0 9.24998 0.75 9.99998 1.66667 9.99998H18.3333C19.25 9.99998 20 9.24998 20 8.33331V2.49998C20 1.58331 19.25 0.833313 18.3333 0.833313ZM19.1667 8.33331C19.1667 8.79248 18.7925 9.16665 18.3333 9.16665H1.66667C1.2075 9.16665 0.833333 8.79248 0.833333 8.33331V2.49998C0.833333 2.04081 1.2075 1.66665 1.66667 1.66665H18.3333C18.7925 1.66665 19.1667 2.04081 19.1667 2.49998V8.33331Z" fill="black"/>
<path d="M5 6.66665V5.83331V4.58331C5 3.89415 4.43917 3.33331 3.75 3.33331H2.91667C2.68667 3.33331 2.5 3.51998 2.5 3.74998C2.5 3.97998 2.68667 4.16665 2.91667 4.16665H3.75C3.97917 4.16665 4.16667 4.35331 4.16667 4.58331V4.99998H3.33333C2.875 4.99998 2.5 5.37498 2.5 5.83331V6.66665C2.5 7.12498 2.875 7.49998 3.33333 7.49998H5C5.23 7.49998 5.41667 7.31331 5.41667 7.08331C5.41667 6.85331 5.23 6.66665 5 6.66665ZM4.16667 6.66665H3.33333V5.83331H4.16667V6.66665Z" fill="black"/>
<path d="M5.83325 3.33333H6.66659V7.5H5.83325V8.33333H8.33325V7.5H7.49992V3.33333H8.33325V2.5H5.83325V3.33333Z" fill="black"/>
</svg>
