<svg width="20" height="18" viewBox="0 0 20 18" fill="none" xmlns="http://www.w3.org/2000/svg">
<path d="M9.27835 15.598H8.45366V2.40201H13.4021V3.22685C13.4021 3.68292 13.7707 4.05154 14.2268 4.05154C14.6829 4.05154 15.0515 3.68292 15.0515 3.22685V1.57732C15.0515 1.12125 14.6829 0.752625 14.2268 0.752625H0.824692C0.368627 0.752625 0 1.12125 0 1.57732V3.22685C0 3.68292 0.368627 4.05154 0.824692 4.05154C1.28076 4.05154 1.64953 3.68292 1.64953 3.22685V2.40201H6.80412V15.598H5.97943C5.52337 15.598 5.15459 15.9666 5.15459 16.4227C5.15459 16.8787 5.52337 17.2474 5.97943 17.2474H9.27835C9.73442 17.2474 10.103 16.8787 10.103 16.4227C10.103 15.9666 9.73442 15.598 9.27835 15.598Z" fill="black"/>
<path d="M19.1754 8.17529H12.5774C12.1213 8.17529 11.7527 8.54392 11.7527 8.99998V10.4432C11.7527 10.8993 12.1213 11.2681 12.5774 11.2681C13.0334 11.2681 13.4022 10.8993 13.4022 10.4432V9.82468H15.0516V15.598H14.6393C14.1833 15.598 13.8145 15.9666 13.8145 16.4227C13.8145 16.8787 14.1833 17.2474 14.6393 17.2474H17.1136C17.5696 17.2474 17.9383 16.8787 17.9383 16.4227C17.9383 15.9666 17.5696 15.598 17.1136 15.598H16.7011V9.82468H18.3507V10.2371C18.3507 10.6932 18.7193 11.0618 19.1754 11.0618C19.6314 11.0618 20.0001 10.6932 20.0001 10.2371V8.99998C20.0001 8.54392 19.6314 8.17529 19.1754 8.17529Z" fill="black"/>
</svg>
