<svg width="20" height="20" viewBox="0 0 20 20" fill="none" xmlns="http://www.w3.org/2000/svg">
<path d="M8.27535 9.56522H1.28987C0.578652 9.56522 0 8.98656 0 8.27535V1.28987C0 0.578652 0.578652 0 1.28987 0H8.27539C8.98656 0 9.56522 0.578652 9.56522 1.28987V8.27539C9.56522 8.98656 8.98656 9.56522 8.27535 9.56522ZM1.28987 0.869565C1.05809 0.869565 0.869565 1.05809 0.869565 1.28987V8.27539C0.869565 8.50713 1.05809 8.69569 1.28987 8.69569H8.27539C8.50713 8.69569 8.69569 8.50717 8.69569 8.27539V1.28987C8.69569 1.05813 8.50717 0.869565 8.27539 0.869565H1.28987Z" fill="black"/>
<path d="M17.4058 8.69565H12.1595C11.4483 8.69565 10.8696 8.11705 10.8696 7.40579V2.15944C10.8696 1.44818 11.4483 0.869568 12.1595 0.869568H17.4058C18.1171 0.869568 18.6957 1.44818 18.6957 2.15944V7.40583C18.6957 8.11705 18.1171 8.69565 17.4058 8.69565ZM12.1595 1.73913C11.9278 1.73913 11.7392 1.92765 11.7392 2.15944V7.40583C11.7392 7.63757 11.9278 7.82613 12.1595 7.82613H17.4058C17.6376 7.82613 17.8262 7.63761 17.8262 7.40583V2.15944C17.8262 1.9277 17.6376 1.73913 17.4058 1.73913H12.1595Z" fill="black"/>
<path d="M18.2753 20H11.2899C10.5787 20 10 19.4213 10 18.7101V11.7246C10 11.0134 10.5787 10.4348 11.2899 10.4348H18.2753C18.9866 10.4348 19.5652 11.0134 19.5652 11.7246V18.7101C19.5652 19.4213 18.9866 20 18.2753 20ZM11.2899 11.3043C11.0581 11.3043 10.8696 11.4929 10.8696 11.7246V18.7101C10.8696 18.9418 11.0581 19.1304 11.2899 19.1304H18.2753C18.5071 19.1304 18.6957 18.9418 18.6957 18.7101V11.7246C18.6957 11.4929 18.5071 11.3043 18.2753 11.3043H11.2899Z" fill="black"/>
<path d="M7.40585 19.1304H2.1595C1.44824 19.1304 0.869629 18.5518 0.869629 17.8405V12.5942C0.869629 11.883 1.44824 11.3043 2.1595 11.3043H7.40589C8.11711 11.3043 8.69572 11.883 8.69572 12.5942V17.8405C8.69572 18.5518 8.11711 19.1304 7.40585 19.1304ZM2.1595 12.1739C1.92776 12.1739 1.73919 12.3625 1.73919 12.5942V17.8405C1.73919 18.0723 1.92772 18.2608 2.1595 18.2608H7.40589C7.63763 18.2608 7.82619 18.0723 7.82619 17.8405V12.5942C7.82619 12.3625 7.63767 12.1739 7.40589 12.1739H2.1595Z" fill="black"/>
</svg>
