<svg width="27" height="27" viewBox="0 0 27 27" fill="none" xmlns="http://www.w3.org/2000/svg">
<path d="M25.4114 26.1768L25.323 26.0884L18.5155 19.2818C17.2698 20.4076 15.7734 21.2204 14.1499 21.6523C12.4878 22.0944 10.7429 22.1237 9.06684 21.7377C7.39079 21.3517 5.83434 20.562 4.53276 19.4373C3.23117 18.3125 2.22384 16.8868 1.59831 15.284C0.972777 13.6812 0.747969 11.9498 0.943424 10.2402C1.13888 8.53074 1.74868 6.89484 2.71984 5.47474C3.69099 4.05464 4.99412 2.89331 6.51595 2.09169C8.03779 1.29007 9.73228 0.872407 11.4522 0.875012L25.4114 26.1768ZM25.4114 26.1768L25.4998 26.0884M25.4114 26.1768L25.4998 26.0884M25.4998 26.0884L26.0884 25.4995L26.1767 25.4112M25.4998 26.0884L26.1767 25.4112M26.1767 25.4112L26.0885 25.3228M26.1767 25.4112L26.0885 25.3228M26.0885 25.3228L19.2889 18.5077M26.0885 25.3228L19.2889 18.5077M19.2889 18.5077C20.6323 17.0137 21.5226 15.1667 21.8541 13.1829C22.1921 11.1598 21.9341 9.08194 21.1118 7.20296C20.2894 5.32398 18.9381 3.7251 17.2229 2.60143C15.5076 1.47776 13.5025 0.877883 11.4522 0.875012L19.2889 18.5077ZM11.452 20.9218C9.57777 20.9218 7.74564 20.3658 6.18727 19.324C4.62891 18.2822 3.4143 16.8016 2.69706 15.0692C1.97982 13.3368 1.79215 11.4305 2.1578 9.59142C2.52345 7.75233 3.42598 6.06302 4.75127 4.73712C6.07655 3.41122 7.76506 2.50827 9.60327 2.14246C11.4415 1.77665 13.3468 1.9644 15.0784 2.68196C16.8099 3.39953 18.2899 4.6147 19.3312 6.1738C20.3725 7.7329 20.9283 9.56591 20.9283 11.441C20.9283 13.9555 19.9299 16.367 18.1527 18.145C16.3756 19.9229 13.9652 20.9218 11.452 20.9218Z" fill="#2D2D2D" stroke="#2D2D2D" stroke-width="0.25"/>
<path d="M11.7533 7.81824V7.69324H11.6283H10.8261H10.7011V7.81824V10.7013H7.81812H7.69312V10.8263V11.6284V11.7534H7.81812H10.7011V14.6364V14.7614H10.8261H11.6283H11.7533V14.6364V11.7534H14.6363H14.7613V11.6284V10.8263V10.7013H14.6363H11.7533V7.81824Z" fill="#2D2D2D" stroke="#2D2D2D" stroke-width="0.25"/>
</svg>
