<svg width="26" height="16" viewBox="0 0 26 16" fill="none" xmlns="http://www.w3.org/2000/svg">
<path d="M25.7071 8.70711C26.0976 8.31658 26.0976 7.68342 25.7071 7.2929L19.3431 0.928934C18.9526 0.538409 18.3195 0.538409 17.9289 0.928934C17.5384 1.31946 17.5384 1.95262 17.9289 2.34315L23.5858 8L17.9289 13.6569C17.5384 14.0474 17.5384 14.6805 17.9289 15.0711C18.3195 15.4616 18.9526 15.4616 19.3431 15.0711L25.7071 8.70711ZM-8.74228e-08 9L25 9L25 7L8.74228e-08 7L-8.74228e-08 9Z" fill="url(#paint0_linear_256_892)"/>
<defs>
<linearGradient id="paint0_linear_256_892" x1="-4.37114e-08" y1="8.5" x2="25" y2="8.5" gradientUnits="userSpaceOnUse">
<stop stop-color="#FFC28C"/>
<stop offset="0.494792" stop-color="#EA60D5"/>
<stop offset="1" stop-color="#7D8DFF"/>
</linearGradient>
</defs>
</svg>
