<svg width="30" height="30" viewBox="0 0 30 30" fill="none" xmlns="http://www.w3.org/2000/svg">
<path d="M15.4934 7.25356C14.7467 7.25356 14.1334 6.64689 14.1334 5.89356C14.1334 5.70689 14.28 5.56022 14.4667 5.56022C14.6534 5.56022 14.8 5.70689 14.8 5.89356C14.8 6.27356 15.1067 6.58689 15.4934 6.58689C15.88 6.58689 16.1867 6.27356 16.1867 5.89356C16.1867 5.51356 15.88 5.20022 15.4934 5.20022C14.7467 5.20022 14.1334 4.59356 14.1334 3.84022C14.1334 3.08689 14.74 2.48022 15.4934 2.48022C16.24 2.48022 16.8534 3.08689 16.8534 3.84022C16.8534 4.02689 16.7067 4.17356 16.52 4.17356C16.3334 4.17356 16.1867 4.02689 16.1867 3.84022C16.1867 3.46022 15.88 3.14689 15.4934 3.14689C15.1067 3.14689 14.8 3.46022 14.8 3.84022C14.8 4.22022 15.1067 4.53356 15.4934 4.53356C16.24 4.53356 16.8534 5.14022 16.8534 5.89356C16.8534 6.64689 16.2467 7.25356 15.4934 7.25356Z" fill="black"/>
<path d="M15.4934 3.15344C15.3067 3.15344 15.16 3.00678 15.16 2.82011V2.28011C15.16 2.09344 15.3067 1.94678 15.4934 1.94678C15.68 1.94678 15.8267 2.09344 15.8267 2.28011V2.82011C15.8267 3.00678 15.68 3.15344 15.4934 3.15344Z" fill="black"/>
<path d="M15.4934 7.79334C15.3067 7.79334 15.16 7.64667 15.16 7.46V6.92C15.16 6.73334 15.3067 6.58667 15.4934 6.58667C15.68 6.58667 15.8267 6.73334 15.8267 6.92V7.46C15.8267 7.64 15.68 7.79334 15.4934 7.79334Z" fill="black"/>
<path d="M27.4867 27.9933H3.50667C3.32001 27.9933 3.17334 27.8467 3.17334 27.66V3.68001C3.17334 3.49335 3.32001 3.34668 3.50667 3.34668C3.69334 3.34668 3.84001 3.49335 3.84001 3.68001V27.3267H27.4867C27.6733 27.3267 27.82 27.4733 27.82 27.66C27.82 27.8467 27.6667 27.9933 27.4867 27.9933Z" fill="black"/>
<path d="M3.50669 27.9933C3.46002 27.9933 3.42002 27.9866 3.37336 27.9666C3.20669 27.8933 3.12669 27.7 3.20002 27.5266L10.74 9.86665C10.7934 9.73998 10.9134 9.65998 11.0534 9.66665C11.1867 9.66665 11.3134 9.75331 11.36 9.87998L15.2734 20.08L19.64 11.24C19.6934 11.1333 19.8 11.06 19.9267 11.0533C20.0467 11.0466 20.16 11.1066 20.2267 11.2133L24.3867 18.08H27.4867C27.6734 18.08 27.82 18.2266 27.82 18.4133C27.82 18.6 27.6734 18.7466 27.4867 18.7466H24.1934C24.0734 18.7466 23.9667 18.6866 23.9067 18.5866L19.9667 12.08L15.5267 21.06C15.4667 21.18 15.3467 21.2533 15.2134 21.2466C15.08 21.24 14.9667 21.1533 14.92 21.0333L11.0334 10.8933L3.81336 27.7866C3.76003 27.9133 3.63336 27.9933 3.50669 27.9933Z" fill="black"/>
<path d="M3.50669 27.9934C3.43335 27.9934 3.35335 27.9668 3.29335 27.9134C3.15335 27.7934 3.13335 27.5868 3.25335 27.4468L14.7667 13.6668C14.8334 13.5868 14.9334 13.5401 15.0334 13.5468C15.14 13.5534 15.2334 13.6001 15.2934 13.6868L20.9734 21.7001L28.24 19.6934C28.42 19.6468 28.6 19.7468 28.6467 19.9268C28.6934 20.1068 28.5934 20.2868 28.4134 20.3334L20.92 22.4001C20.7867 22.4401 20.64 22.3868 20.56 22.2734L14.9934 14.4201L3.76002 27.8734C3.69335 27.9468 3.60002 27.9934 3.50669 27.9934Z" fill="black"/>
<path d="M15.4933 9.42673C12.98 9.42673 10.94 7.38007 10.94 4.8734C10.94 2.36673 12.9867 0.320068 15.4933 0.320068C18 0.320068 20.0467 2.36673 20.0467 4.8734C20.0467 7.38007 18.0067 9.42673 15.4933 9.42673ZM15.4933 0.980068C13.3467 0.980068 11.6067 2.72673 11.6067 4.86673C11.6067 7.00673 13.3533 8.7534 15.4933 8.7534C17.6333 8.7534 19.38 7.00673 19.38 4.86673C19.38 2.72673 17.64 0.980068 15.4933 0.980068Z" fill="black"/>
<path d="M3.50667 5.68669H1.71334C1.52667 5.68669 1.38 5.54002 1.38 5.35335C1.38 5.16669 1.52667 5.02002 1.71334 5.02002H3.50667C3.69334 5.02002 3.84 5.16669 3.84 5.35335C3.84 5.54002 3.68667 5.68669 3.50667 5.68669Z" fill="black"/>
<path d="M3.50667 8.63346H1.71334C1.52667 8.63346 1.38 8.4868 1.38 8.30013C1.38 8.11346 1.52667 7.9668 1.71334 7.9668H3.50667C3.69334 7.9668 3.84 8.11346 3.84 8.30013C3.84 8.4868 3.68667 8.63346 3.50667 8.63346Z" fill="black"/>
<path d="M3.50667 11.58H1.71334C1.52667 11.58 1.38 11.4333 1.38 11.2467C1.38 11.06 1.52667 10.9133 1.71334 10.9133H3.50667C3.69334 10.9133 3.84 11.06 3.84 11.2467C3.84 11.4333 3.68667 11.58 3.50667 11.58Z" fill="black"/>
<path d="M3.50667 14.5268H1.71334C1.52667 14.5268 1.38 14.3801 1.38 14.1934C1.38 14.0068 1.52667 13.8601 1.71334 13.8601H3.50667C3.69334 13.8601 3.84 14.0068 3.84 14.1934C3.84 14.3801 3.68667 14.5268 3.50667 14.5268Z" fill="black"/>
<path d="M3.50667 17.4733H1.71334C1.52667 17.4733 1.38 17.3266 1.38 17.14C1.38 16.9533 1.52667 16.8066 1.71334 16.8066H3.50667C3.69334 16.8066 3.84 16.9533 3.84 17.14C3.84 17.3266 3.68667 17.4733 3.50667 17.4733Z" fill="black"/>
<path d="M3.50667 20.4201H1.71334C1.52667 20.4201 1.38 20.2734 1.38 20.0868C1.38 19.9001 1.52667 19.7534 1.71334 19.7534H3.50667C3.69334 19.7534 3.84 19.9001 3.84 20.0868C3.84 20.2734 3.68667 20.4201 3.50667 20.4201Z" fill="black"/>
<path d="M3.50667 23.3666H1.71334C1.52667 23.3666 1.38 23.22 1.38 23.0333C1.38 22.8466 1.52667 22.7 1.71334 22.7H3.50667C3.69334 22.7 3.84 22.8466 3.84 23.0333C3.84 23.22 3.68667 23.3666 3.50667 23.3666Z" fill="black"/>
<path d="M3.50667 26.32H1.71334C1.52667 26.32 1.38 26.1733 1.38 25.9867C1.38 25.8 1.52667 25.6533 1.71334 25.6533H3.50667C3.69334 25.6533 3.84 25.8 3.84 25.9867C3.84 26.1733 3.68667 26.32 3.50667 26.32Z" fill="black"/>
<path d="M25.8134 29.7801C25.6267 29.7801 25.48 29.6334 25.48 29.4467V27.6534C25.48 27.4667 25.6267 27.3201 25.8134 27.3201C26 27.3201 26.1467 27.4667 26.1467 27.6534V29.4467C26.1467 29.6334 26 29.7801 25.8134 29.7801Z" fill="black"/>
<path d="M22.8667 29.7801C22.68 29.7801 22.5333 29.6334 22.5333 29.4467V27.6534C22.5333 27.4667 22.68 27.3201 22.8667 27.3201C23.0533 27.3201 23.2 27.4667 23.2 27.6534V29.4467C23.2 29.6334 23.0467 29.7801 22.8667 29.7801Z" fill="black"/>
<path d="M19.92 29.7801C19.7333 29.7801 19.5867 29.6334 19.5867 29.4467V27.6534C19.5867 27.4667 19.7333 27.3201 19.92 27.3201C20.1067 27.3201 20.2533 27.4667 20.2533 27.6534V29.4467C20.2533 29.6334 20.1 29.7801 19.92 29.7801Z" fill="black"/>
<path d="M16.9667 29.7801C16.78 29.7801 16.6334 29.6334 16.6334 29.4467V27.6534C16.6334 27.4667 16.78 27.3201 16.9667 27.3201C17.1534 27.3201 17.3 27.4667 17.3 27.6534V29.4467C17.3 29.6334 17.1534 29.7801 16.9667 29.7801Z" fill="black"/>
<path d="M14.02 29.7801C13.8334 29.7801 13.6867 29.6334 13.6867 29.4467V27.6534C13.6867 27.4667 13.8334 27.3201 14.02 27.3201C14.2067 27.3201 14.3534 27.4667 14.3534 27.6534V29.4467C14.3534 29.6334 14.2067 29.7801 14.02 29.7801Z" fill="black"/>
<path d="M11.0733 29.7801C10.8867 29.7801 10.74 29.6334 10.74 29.4467V27.6534C10.74 27.4667 10.8867 27.3201 11.0733 27.3201C11.26 27.3201 11.4067 27.4667 11.4067 27.6534V29.4467C11.4067 29.6334 11.26 29.7801 11.0733 29.7801Z" fill="black"/>
<path d="M8.12667 29.7801C7.94 29.7801 7.79333 29.6334 7.79333 29.4467V27.6534C7.79333 27.4667 7.94 27.3201 8.12667 27.3201C8.31334 27.3201 8.46 27.4667 8.46 27.6534V29.4467C8.46 29.6334 8.30667 29.7801 8.12667 29.7801Z" fill="black"/>
<path d="M5.18001 29.7801C4.99335 29.7801 4.84668 29.6334 4.84668 29.4467V27.6534C4.84668 27.4667 4.99335 27.3201 5.18001 27.3201C5.36668 27.3201 5.51335 27.4667 5.51335 27.6534V29.4467C5.51335 29.6334 5.36001 29.7801 5.18001 29.7801Z" fill="black"/>
</svg>
