<svg width="30" height="30" viewBox="0 0 30 30" fill="none" xmlns="http://www.w3.org/2000/svg">
<path d="M29.9989 9.80532C29.776 6.15677 27.2552 3.05974 23.7262 2.09874C21.5286 1.50027 19.2295 1.7935 17.2523 2.92427C15.2751 4.05504 13.8567 5.8881 13.2583 8.08568C12.7682 9.88557 12.8849 11.8083 13.584 13.5311L12.281 16.2074C12.1925 16.3891 12.2039 16.6035 12.3111 16.7749C12.4182 16.9462 12.6061 17.0502 12.8081 17.0502H16.2397C17.1294 17.7411 18.1641 18.2592 19.2452 18.5536C19.9907 18.7566 20.7453 18.8548 21.4915 18.8548C24.2857 18.8548 26.9593 17.4781 28.5694 15.0764C28.7498 14.8075 28.678 14.4434 28.409 14.2631C28.1401 14.0828 27.7759 14.1545 27.5957 14.4235C25.8361 17.0481 22.6043 18.2531 19.5533 17.4224C18.5618 17.1524 17.6152 16.6641 16.8159 16.0103C16.7112 15.9246 16.58 15.8778 16.4447 15.8778H13.7456L14.7551 13.8043C14.8309 13.6488 14.834 13.4677 14.7637 13.3096C14.0787 11.769 13.9459 10.0232 14.3896 8.3938C15.4551 4.48099 19.5054 2.16446 23.4182 3.23004C26.4621 4.05896 28.6364 6.7301 28.8287 9.87683C28.8484 10.2001 29.1273 10.4469 29.4495 10.4262C29.7727 10.4064 30.0187 10.1284 29.9989 9.80532Z" fill="#2D2D2D"/>
<path d="M4.64353 17.123H8.69265C9.01642 17.123 9.27887 16.8605 9.27887 16.5368V9.73691H11.1685C11.3974 9.73691 11.6054 9.60372 11.701 9.39573C11.7967 9.18779 11.7626 8.94316 11.6137 8.76935L7.1133 3.51519C7.00192 3.38511 6.8393 3.3103 6.66806 3.3103C6.49683 3.3103 6.33421 3.38511 6.22282 3.51519L1.72238 8.76935C1.57347 8.94316 1.53936 9.18779 1.63503 9.39573C1.7307 9.60372 1.93869 9.73691 2.16755 9.73691H4.05719V16.5368C4.05731 16.8605 4.31976 17.123 4.64353 17.123ZM3.44171 8.56446L6.66812 4.79767L9.89453 8.56446H8.69271C8.36894 8.56446 8.10648 8.82697 8.10648 9.15069V15.9505H5.22976V9.15069C5.22976 8.82697 4.96731 8.56446 4.64353 8.56446H3.44171Z" fill="#2D2D2D"/>
<path d="M18.052 14.5233C18.2966 14.7289 18.6724 14.6964 18.878 14.452L25.0725 7.08788C25.2809 6.84009 25.2491 6.4703 25.0013 6.26189C24.7533 6.05343 24.3837 6.08544 24.1753 6.33312L17.9808 13.6973C17.7723 13.945 17.8042 14.3149 18.052 14.5233Z" fill="#2D2D2D"/>
<path d="M21.2537 8.01523C21.2537 6.86113 20.3085 5.92212 19.1467 5.92212C17.9848 5.92212 17.0396 6.86113 17.0396 8.01523C17.0396 9.16939 17.9848 10.1084 19.1467 10.1084C20.3085 10.1084 21.2537 9.16945 21.2537 8.01523ZM18.2119 8.01523C18.2119 7.50756 18.6312 7.09457 19.1466 7.09457C19.662 7.09457 20.0812 7.50756 20.0812 8.01523C20.0812 8.52291 19.662 8.93596 19.1466 8.93596C18.6312 8.93596 18.2119 8.52291 18.2119 8.01523Z" fill="#2D2D2D"/>
<path d="M23.7953 14.8897C24.9571 14.8897 25.9023 13.9506 25.9023 12.7965C25.9023 11.6424 24.9571 10.7034 23.7953 10.7034C22.6334 10.7034 21.6882 11.6424 21.6882 12.7965C21.6882 13.9506 22.6334 14.8897 23.7953 14.8897ZM23.7953 11.8758C24.3106 11.8758 24.7299 12.2889 24.7299 12.7965C24.7299 13.3042 24.3106 13.7172 23.7953 13.7172C23.2799 13.7172 22.8607 13.3042 22.8607 12.7965C22.8607 12.2889 23.2799 11.8758 23.7953 11.8758Z" fill="#2D2D2D"/>
<path d="M1.46767 28.2048H7.21842C7.54893 28.2048 7.85424 28.0949 8.09981 27.9099C8.34544 28.0949 8.65069 28.2048 8.98126 28.2048H14.6945C15.025 28.2048 15.3303 28.0949 15.5759 27.9099C15.8215 28.0949 16.1268 28.2048 16.4573 28.2048H22.1705C22.9798 28.2048 23.6382 27.5465 23.6382 26.7372V25.7524C23.6382 24.9432 22.9798 24.2848 22.1705 24.2848H16.4573C16.3424 24.2848 16.2307 24.2985 16.1233 24.3236C16.1484 24.2162 16.1621 24.1045 16.1621 23.9896V23.0048C16.1621 22.6743 16.0522 22.369 15.8671 22.1234C16.0522 21.8778 16.1621 21.5725 16.1621 21.242V20.2572C16.1621 19.4479 15.5038 18.7896 14.6945 18.7896H8.98126C8.17198 18.7896 7.51359 19.4479 7.51359 20.2572V21.242C7.51359 21.3569 7.5273 21.4686 7.55239 21.576C7.445 21.5509 7.33332 21.5372 7.21842 21.5372H1.46767C0.658389 21.5371 0 22.1955 0 23.0047V23.9895C0 24.3201 0.109917 24.6254 0.294988 24.871C0.109917 25.1166 0 25.4219 0 25.7524V26.7372C0 27.5465 0.658389 28.2048 1.46767 28.2048ZM7.21836 27.0324H1.46767C1.30488 27.0324 1.17245 26.9 1.17245 26.7372V25.7524C1.17245 25.5897 1.30488 25.4573 1.46767 25.4573H7.21842C7.38116 25.4573 7.51359 25.5897 7.51359 25.7524V26.7372C7.51353 26.9 7.38116 27.0324 7.21836 27.0324ZM14.9896 23.0047V23.9895C14.9896 24.1523 14.8572 24.2848 14.6944 24.2848H8.9812C8.8184 24.2848 8.68598 24.1523 8.68598 23.9895V23.0047C8.68598 22.842 8.8184 22.7096 8.9812 22.7096H14.6944C14.8572 22.7096 14.9896 22.842 14.9896 23.0047ZM14.6944 27.0324H8.9812C8.8184 27.0324 8.68598 26.9 8.68598 26.7372V25.7524C8.68598 25.5897 8.8184 25.4573 8.9812 25.4573H14.6944C14.8572 25.4573 14.9896 25.5897 14.9896 25.7524V26.7372C14.9896 26.9 14.8572 27.0324 14.6944 27.0324ZM16.4573 25.4572H22.1704C22.3332 25.4572 22.4657 25.5896 22.4657 25.7524V26.7372C22.4657 26.9 22.3332 27.0324 22.1704 27.0324H16.4573C16.2945 27.0324 16.162 26.9 16.162 26.7372V25.7524C16.162 25.5896 16.2945 25.4572 16.4573 25.4572ZM8.68598 20.2571C8.68598 20.0944 8.8184 19.9619 8.9812 19.9619H14.6944C14.8572 19.9619 14.9896 20.0944 14.9896 20.2571V21.2419C14.9896 21.4047 14.8572 21.5371 14.6944 21.5371H8.9812C8.8184 21.5371 8.68598 21.4047 8.68598 21.2419V20.2571ZM1.17245 23.0047C1.17245 22.842 1.30488 22.7096 1.46767 22.7096H7.21842C7.38116 22.7096 7.51359 22.842 7.51359 23.0047V23.9895C7.51359 24.1523 7.38116 24.2848 7.21842 24.2848H1.46767C1.30488 24.2848 1.17245 24.1523 1.17245 23.9895V23.0047Z" fill="#2D2D2D"/>
<path d="M29.6348 12.0875C29.46 11.82 29.0864 11.7492 28.8224 11.9251C28.5568 12.1021 28.4825 12.4727 28.66 12.7381C28.8377 13.004 29.2071 13.0765 29.473 12.9C29.739 12.7235 29.8116 12.3524 29.6348 12.0875Z" fill="#2D2D2D"/>
</svg>
