<svg width="30" height="31" viewBox="0 0 30 31" fill="none" xmlns="http://www.w3.org/2000/svg">
<g clip-path="url(#clip0_4_739)">
<path d="M29.25 13.6145C29.2491 13.6138 29.2484 13.6129 29.2477 13.6122L17.0101 1.37502C16.4884 0.853165 15.7949 0.565918 15.0573 0.565918C14.3196 0.565918 13.6261 0.853165 13.1042 1.37502L0.872986 13.606C0.868866 13.6101 0.864517 13.6145 0.860626 13.6186C-0.21054 14.6959 -0.208709 16.4439 0.865891 17.5185C1.35684 18.0097 2.00504 18.294 2.69832 18.3239C2.7267 18.3267 2.75508 18.3281 2.78369 18.3281H3.27121V27.3336C3.27121 29.116 4.72141 30.5659 6.50371 30.5659H11.2915C11.7769 30.5659 12.1704 30.1722 12.1704 29.687V22.6265C12.1704 21.8132 12.8321 21.1518 13.6453 21.1518H16.4692C17.2824 21.1518 17.9439 21.8132 17.9439 22.6265V29.687C17.9439 30.1722 18.3374 30.5659 18.8228 30.5659H23.6106C25.3931 30.5659 26.8431 29.116 26.8431 27.3336V18.3281H27.2953C28.0328 18.3281 28.7263 18.0408 29.2484 17.5187C30.3241 16.4425 30.3246 14.6914 29.25 13.6145ZM28.0053 16.2759C27.8156 16.4657 27.5634 16.5703 27.2953 16.5703H25.9642C25.4787 16.5703 25.0852 16.9637 25.0852 17.4492V27.3336C25.0852 28.1466 24.4238 28.8081 23.6106 28.8081H19.7017V22.6265C19.7017 20.8442 18.2518 19.394 16.4692 19.394H13.6453C11.8627 19.394 10.4126 20.8442 10.4126 22.6265V28.8081H6.50371C5.69072 28.8081 5.02902 28.1466 5.02902 27.3336V17.4492C5.02902 16.9637 4.63557 16.5703 4.15012 16.5703H2.84183C2.82809 16.5693 2.81459 16.5686 2.80063 16.5684C2.53879 16.5638 2.2932 16.4599 2.10918 16.2757C1.71779 15.8843 1.71779 15.2473 2.10918 14.8557C2.10941 14.8557 2.10941 14.8555 2.10963 14.8552L2.11032 14.8546L14.3475 2.61784C14.537 2.4281 14.789 2.32373 15.0573 2.32373C15.3253 2.32373 15.5773 2.4281 15.767 2.61784L28.0014 14.852C28.0033 14.8539 28.0053 14.8557 28.0072 14.8575C28.3965 15.2496 28.3958 15.8852 28.0053 16.2759Z" fill="#2D2D2D"/>
</g>
<defs>
<clipPath id="clip0_4_739">
<rect width="30" height="30" fill="white" transform="translate(0 0.624512)"/>
</clipPath>
</defs>
</svg>
