<svg width="25" height="25" viewBox="0 0 25 25" fill="none" xmlns="http://www.w3.org/2000/svg">
<path d="M22.6562 18.75H20.3125V16.4062C20.3125 16.199 20.2302 16.0003 20.0837 15.8538C19.9372 15.7073 19.7385 15.625 19.5312 15.625C19.324 15.625 19.1253 15.7073 18.9788 15.8538C18.8323 16.0003 18.75 16.199 18.75 16.4062V18.75H16.4062C16.199 18.75 16.0003 18.8323 15.8538 18.9788C15.7073 19.1253 15.625 19.324 15.625 19.5312C15.625 19.7385 15.7073 19.9372 15.8538 20.0837C16.0003 20.2302 16.199 20.3125 16.4062 20.3125H18.75V22.6562C18.75 22.8635 18.8323 23.0622 18.9788 23.2087C19.1253 23.3552 19.324 23.4375 19.5312 23.4375C19.7385 23.4375 19.9372 23.3552 20.0837 23.2087C20.2302 23.0622 20.3125 22.8635 20.3125 22.6562V20.3125H22.6562C22.8635 20.3125 23.0622 20.2302 23.2087 20.0837C23.3552 19.9372 23.4375 19.7385 23.4375 19.5312C23.4375 19.324 23.3552 19.1253 23.2087 18.9788C23.0622 18.8323 22.8635 18.75 22.6562 18.75Z" fill="#2D2D2D"/>
<path d="M13.2812 18.75H3.90625C3.69905 18.75 3.50034 18.6677 3.35382 18.5212C3.20731 18.3747 3.125 18.176 3.125 17.9688V15.9453L6.25 12.8203L8.03906 14.6172C8.11169 14.6904 8.1981 14.7485 8.2933 14.7882C8.3885 14.8279 8.49062 14.8483 8.59375 14.8483C8.69688 14.8483 8.799 14.8279 8.8942 14.7882C8.9894 14.7485 9.07581 14.6904 9.14844 14.6172L13.2812 10.4766L16.6328 13.8359C16.7799 13.983 16.9795 14.0657 17.1875 14.0657C17.3955 14.0657 17.5951 13.983 17.7422 13.8359C17.8893 13.6888 17.9719 13.4893 17.9719 13.2812C17.9719 13.0732 17.8893 12.8737 17.7422 12.7266L13.8359 8.82031C13.7633 8.74709 13.6769 8.68897 13.5817 8.6493C13.4865 8.60964 13.3844 8.58922 13.2812 8.58922C13.1781 8.58922 13.076 8.60964 12.9808 8.6493C12.8856 8.68897 12.7992 8.74709 12.7266 8.82031L8.59375 12.9609L6.80469 11.1641C6.73206 11.0908 6.64565 11.0327 6.55045 10.9931C6.45525 10.9534 6.35313 10.933 6.25 10.933C6.14687 10.933 6.04475 10.9534 5.94955 10.9931C5.85435 11.0327 5.76794 11.0908 5.69531 11.1641L3.125 13.7422V3.90625C3.125 3.69905 3.20731 3.50034 3.35382 3.35382C3.50034 3.20731 3.69905 3.125 3.90625 3.125H17.9688C18.176 3.125 18.3747 3.20731 18.5212 3.35382C18.6677 3.50034 18.75 3.69905 18.75 3.90625V13.2812C18.75 13.4885 18.8323 13.6872 18.9788 13.8337C19.1253 13.9802 19.324 14.0625 19.5312 14.0625C19.7385 14.0625 19.9372 13.9802 20.0837 13.8337C20.2302 13.6872 20.3125 13.4885 20.3125 13.2812V3.90625C20.3125 3.28465 20.0656 2.68851 19.626 2.24897C19.1865 1.80943 18.5904 1.5625 17.9688 1.5625H3.90625C3.28465 1.5625 2.68851 1.80943 2.24897 2.24897C1.80943 2.68851 1.5625 3.28465 1.5625 3.90625V17.9688C1.5625 18.5904 1.80943 19.1865 2.24897 19.626C2.68851 20.0656 3.28465 20.3125 3.90625 20.3125H13.2812C13.4885 20.3125 13.6872 20.2302 13.8337 20.0837C13.9802 19.9372 14.0625 19.7385 14.0625 19.5312C14.0625 19.324 13.9802 19.1253 13.8337 18.9788C13.6872 18.8323 13.4885 18.75 13.2812 18.75Z" fill="#2D2D2D"/>
<path d="M6.25 7.03125C6.25 7.4948 6.38746 7.94794 6.64499 8.33337C6.90253 8.7188 7.26857 9.0192 7.69684 9.19659C8.1251 9.37399 8.59635 9.4204 9.05099 9.32997C9.50564 9.23953 9.92325 9.01631 10.251 8.68853C10.5788 8.36075 10.802 7.94314 10.8925 7.48849C10.9829 7.03385 10.9365 6.5626 10.7591 6.13434C10.5817 5.70607 10.2813 5.34003 9.89587 5.08249C9.51044 4.82496 9.0573 4.6875 8.59375 4.6875C7.97215 4.6875 7.37601 4.93443 6.93647 5.37397C6.49693 5.81351 6.25 6.40965 6.25 7.03125ZM9.375 7.03125C9.375 7.18577 9.32918 7.33681 9.24334 7.46529C9.15749 7.59377 9.03548 7.6939 8.89272 7.75303C8.74997 7.81216 8.59288 7.82763 8.44134 7.79749C8.28979 7.76734 8.15058 7.69294 8.04132 7.58368C7.93206 7.47442 7.85766 7.33521 7.82751 7.18366C7.79737 7.03212 7.81284 6.87503 7.87197 6.73228C7.9311 6.58952 8.03123 6.46751 8.15971 6.38166C8.28819 6.29582 8.43923 6.25 8.59375 6.25C8.80095 6.25 8.99966 6.33231 9.14618 6.47882C9.29269 6.62534 9.375 6.82405 9.375 7.03125Z" fill="#2D2D2D"/>
</svg>
