<svg width="100" height="100" viewBox="0 0 100 100" fill="none" xmlns="http://www.w3.org/2000/svg">
<path d="M50 60.9375C47.4156 60.9375 45.3125 58.8344 45.3125 56.25H42.1875C42.1875 60.0219 44.8766 63.1781 48.4375 63.9047V67.1875H51.5625V63.9047C55.1234 63.1781 57.8125 60.0234 57.8125 56.25C57.8125 51.9422 54.3078 48.4375 50 48.4375C47.4156 48.4375 45.3125 46.3344 45.3125 43.75C45.3125 41.1656 47.4156 39.0625 50 39.0625C52.5844 39.0625 54.6875 41.1656 54.6875 43.75H57.8125C57.8125 39.9781 55.1234 36.8219 51.5625 36.0953V32.8125H48.4375V36.0953C44.8766 36.8219 42.1875 39.9766 42.1875 43.75C42.1875 48.0578 45.6922 51.5625 50 51.5625C52.5844 51.5625 54.6875 53.6656 54.6875 56.25C54.6875 58.8344 52.5844 60.9375 50 60.9375Z" fill="#2D2D2D"/>
<path d="M50 71.875C62.0625 71.875 71.875 62.0625 71.875 50C71.875 37.9375 62.0625 28.125 50 28.125C37.9375 28.125 28.125 37.9375 28.125 50C28.125 62.0625 37.9375 71.875 50 71.875ZM50 31.25C60.3391 31.25 68.75 39.6609 68.75 50C68.75 60.3391 60.3391 68.75 50 68.75C39.6609 68.75 31.25 60.3391 31.25 50C31.25 39.6609 39.6609 31.25 50 31.25Z" fill="#2D2D2D"/>
<path d="M45.3125 14.0625H54.6875C55.5516 14.0625 56.25 13.3625 56.25 12.5V3.125C56.25 2.2625 55.5516 1.5625 54.6875 1.5625H45.3125C44.4484 1.5625 43.75 2.2625 43.75 3.125V12.5C43.75 13.3625 44.4484 14.0625 45.3125 14.0625ZM46.875 4.6875H53.125V10.9375H46.875V4.6875Z" fill="#2D2D2D"/>
<path d="M96.875 1.5625H87.5C86.6359 1.5625 85.9375 2.2625 85.9375 3.125V12.5C85.9375 13.3625 86.6359 14.0625 87.5 14.0625H96.875C97.7391 14.0625 98.4375 13.3625 98.4375 12.5V3.125C98.4375 2.2625 97.7391 1.5625 96.875 1.5625ZM95.3125 10.9375H89.0625V4.6875H95.3125V10.9375Z" fill="#2D2D2D"/>
<path d="M3.125 14.0625H12.5C13.3641 14.0625 14.0625 13.3625 14.0625 12.5V3.125C14.0625 2.2625 13.3641 1.5625 12.5 1.5625H3.125C2.26094 1.5625 1.5625 2.2625 1.5625 3.125V12.5C1.5625 13.3625 2.26094 14.0625 3.125 14.0625ZM4.6875 4.6875H10.9375V10.9375H4.6875V4.6875Z" fill="#2D2D2D"/>
<path d="M43.75 87.5V96.875C43.75 97.7375 44.4484 98.4375 45.3125 98.4375H54.6875C55.5516 98.4375 56.25 97.7375 56.25 96.875V87.5C56.25 86.6375 55.5516 85.9375 54.6875 85.9375H45.3125C44.4484 85.9375 43.75 86.6375 43.75 87.5ZM46.875 89.0625H53.125V95.3125H46.875V89.0625Z" fill="#2D2D2D"/>
<path d="M96.875 85.9375H87.5C86.6359 85.9375 85.9375 86.6375 85.9375 87.5V96.875C85.9375 97.7375 86.6359 98.4375 87.5 98.4375H96.875C97.7391 98.4375 98.4375 97.7375 98.4375 96.875V87.5C98.4375 86.6375 97.7391 85.9375 96.875 85.9375ZM95.3125 95.3125H89.0625V89.0625H95.3125V95.3125Z" fill="#2D2D2D"/>
<path d="M3.125 98.4375H12.5C13.3641 98.4375 14.0625 97.7375 14.0625 96.875V87.5C14.0625 86.6375 13.3641 85.9375 12.5 85.9375H3.125C2.26094 85.9375 1.5625 86.6375 1.5625 87.5V96.875C1.5625 97.7375 2.26094 98.4375 3.125 98.4375ZM4.6875 89.0625H10.9375V95.3125H4.6875V89.0625Z" fill="#2D2D2D"/>
<path d="M96.875 43.75H87.5C86.6359 43.75 85.9375 44.45 85.9375 45.3125V54.6875C85.9375 55.55 86.6359 56.25 87.5 56.25H96.875C97.7391 56.25 98.4375 55.55 98.4375 54.6875V45.3125C98.4375 44.45 97.7391 43.75 96.875 43.75ZM95.3125 53.125H89.0625V46.875H95.3125V53.125Z" fill="#2D2D2D"/>
<path d="M3.125 56.25H12.5C13.3641 56.25 14.0625 55.55 14.0625 54.6875V45.3125C14.0625 44.45 13.3641 43.75 12.5 43.75H3.125C2.26094 43.75 1.5625 44.45 1.5625 45.3125V54.6875C1.5625 55.55 2.26094 56.25 3.125 56.25ZM4.6875 46.875H10.9375V53.125H4.6875V46.875Z" fill="#2D2D2D"/>
<path d="M48.4375 17.1875H51.5625V20.3125H48.4375V17.1875Z" fill="#2D2D2D"/>
<path d="M48.4375 21.875H51.5625V25H48.4375V21.875Z" fill="#2D2D2D"/>
<path d="M48.4375 75H51.5625V78.125H48.4375V75Z" fill="#2D2D2D"/>
<path d="M48.4375 79.6875H51.5625V82.8125H48.4375V79.6875Z" fill="#2D2D2D"/>
<path d="M79.6875 48.4375H82.8125V51.5625H79.6875V48.4375Z" fill="#2D2D2D"/>
<path d="M75 48.4375H78.125V51.5625H75V48.4375Z" fill="#2D2D2D"/>
<path d="M21.875 48.4375H25V51.5625H21.875V48.4375Z" fill="#2D2D2D"/>
<path d="M17.1875 48.4375H20.3125V51.5625H17.1875V48.4375Z" fill="#2D2D2D"/>
<path d="M68.2922 33.9172L81.25 20.9594V23.4375H84.375V17.1875C84.375 16.325 83.6765 15.625 82.8125 15.625H76.5625V18.75H79.0406L66.0828 31.7078L68.2922 33.9172Z" fill="#2D2D2D"/>
<path d="M17.1875 84.375C17.1875 85.2375 17.8859 85.9375 18.75 85.9375H25V82.8125H22.5219L35.4797 69.8547L33.2703 67.6453L20.3125 80.6031V78.125H17.1875V84.375Z" fill="#2D2D2D"/>
<path d="M85.9375 76.5625H82.8125V79.0406L69.8547 66.0828L67.6453 68.2922L80.6031 81.25H78.125V84.375H84.375C85.239 84.375 85.9375 83.675 85.9375 82.8125V76.5625Z" fill="#2D2D2D"/>
<path d="M18.75 20.9594L31.7078 33.9172L33.9172 31.7078L20.9594 18.75H23.4375V15.625H17.1875C16.3234 15.625 15.625 16.325 15.625 17.1875V23.4375H18.75V20.9594Z" fill="#2D2D2D"/>
</svg>
