<svg width="32" height="33" viewBox="0 0 32 33" fill="none" xmlns="http://www.w3.org/2000/svg">
<g clip-path="url(#clip0_4_733)">
<path d="M30.0624 13.8958C29.869 13.7845 29.6308 13.7845 29.4374 13.8958L27.7732 14.8529V8.13509C27.7732 7.9127 27.6541 7.70711 27.4607 7.59592L15.0116 0.435983C14.8183 0.324724 14.58 0.324724 14.3866 0.435983L1.9375 7.59585C1.74412 7.70705 1.625 7.91263 1.625 8.13503V22.455C1.625 22.6774 1.74412 22.883 1.9375 22.9942L14.3866 30.1541C14.4833 30.2097 14.5912 30.2375 14.6991 30.2375C14.8071 30.2375 14.9149 30.2097 15.0116 30.1541L18.9886 27.8667V31.6073C18.9886 31.8297 19.1077 32.0353 19.3011 32.1465C19.3978 32.2022 19.5057 32.2299 19.6136 32.2299C19.7216 32.2299 19.8294 32.2022 19.9261 32.1465L30.0625 26.3167C30.2558 26.2055 30.375 25.9999 30.375 25.7775V14.435C30.3749 14.2126 30.2558 14.007 30.0624 13.8958ZM14.6991 14.5761L12.1167 13.0909L23.3158 6.64987L25.8982 8.13509L14.6991 14.5761ZM6.98692 11.5783L10.2417 13.4503V16.5427L8.84172 14.8524C8.69253 14.6722 8.45466 14.5906 8.22585 14.6404L6.98692 14.9109V11.5783ZM7.61191 10.5L18.811 4.05897L22.0658 5.93089L10.8667 12.3719L7.61191 10.5ZM14.6991 1.69408L17.561 3.34005L6.36192 9.78106L3.49999 8.13509L14.6991 1.69408ZM2.875 9.21344L5.73692 10.8595V15.6848C5.73692 15.8733 5.82267 16.0517 5.97011 16.1698C6.11755 16.288 6.31092 16.3333 6.49567 16.293L8.12047 15.9383L10.3846 18.6719C10.5057 18.8181 10.6838 18.8983 10.8668 18.8983C10.9374 18.8983 11.0088 18.8864 11.078 18.8616C11.3261 18.7728 11.4916 18.5383 11.4916 18.2757V14.1693L14.0741 15.6545V28.5365L2.875 22.0956V9.21344ZM15.3241 28.5365V15.6545L26.5233 9.21344V15.5718L24.6818 16.6309L22.4862 15.3682C22.7254 15.2308 22.8522 14.9461 22.7774 14.6678C22.688 14.3357 22.3452 14.1385 22.0119 14.2276L20.7313 14.5694C20.3979 14.6584 20.2 14.9998 20.2894 15.3319L20.6325 16.6076C20.7073 16.8858 20.9598 17.0693 21.2358 17.0693C21.2893 17.0693 21.3438 17.0623 21.3979 17.0478C21.6773 16.9733 21.8614 16.7215 21.8613 16.4465L23.4319 17.3499L19.3012 19.7255C19.1078 19.8367 18.9887 20.0423 18.9887 20.2647V26.429L15.3241 28.5365ZM29.1249 25.4181L20.2386 30.529V20.6241L29.125 15.5133V25.4181H29.1249Z" fill="#2D2D2D"/>
<path d="M22.4268 27.4316C22.5328 27.4316 22.6403 27.4046 22.7386 27.348L27.25 24.7534C27.5489 24.5814 27.6514 24.2007 27.4787 23.9029C27.3062 23.6052 26.9239 23.5031 26.625 23.675L22.1136 26.2697C21.8147 26.4416 21.7123 26.8224 21.8849 27.1201C22.0006 27.3199 22.2107 27.4316 22.4268 27.4316Z" fill="#2D2D2D"/>
<path d="M22.4268 24.5202C22.5328 24.5202 22.6403 24.4933 22.7386 24.4367L24.9943 23.1394C25.2932 22.9674 25.3957 22.5867 25.2231 22.2889C25.0505 21.9912 24.6682 21.8891 24.3693 22.061L22.1136 23.3583C21.8147 23.5303 21.7123 23.911 21.8849 24.2088C22.0006 24.4085 22.2107 24.5202 22.4268 24.5202Z" fill="#2D2D2D"/>
</g>
<defs>
<clipPath id="clip0_4_733">
<rect width="32" height="31.8774" fill="white" transform="translate(0 0.352539)"/>
</clipPath>
</defs>
</svg>
