<svg width="32" height="33" viewBox="0 0 32 33" fill="none" xmlns="http://www.w3.org/2000/svg">
<path d="M31.9551 18.6167C31.955 18.6166 31.955 18.6165 31.9549 18.6164L25.9132 3.50421C25.785 3.18312 25.4196 3.02637 25.0973 3.1541C25.0971 3.15418 25.0968 3.15426 25.0966 3.15441L0.586081 12.8769C0.486124 12.9199 0.399437 12.9886 0.334814 13.0759C0.130973 13.1814 0.00219859 13.3902 0 13.619V29.8888C0 30.2344 0.281262 30.5146 0.628168 30.5146H27.0112C27.3582 30.5146 27.6394 30.2344 27.6394 29.8888V21.003L31.6044 19.4298C31.9267 19.3018 32.0836 18.9378 31.9551 18.6167ZM26.3831 29.2631H1.25634V14.2448H26.3831V29.2631ZM10.481 12.9964L20.999 8.82131C21.9378 9.80423 23.2385 10.3629 24.6003 10.3682L25.6494 12.9964H10.481ZM27.6394 19.6589V13.619C27.6394 13.2734 27.3582 12.9933 27.0112 12.9933H27.0012L25.6701 9.66296C25.6553 9.63519 25.6381 9.60875 25.6186 9.58411C25.5512 9.28273 25.2711 9.07709 24.9622 9.10228C23.695 9.21734 22.4554 8.6856 21.6687 7.68931C21.4729 7.44862 21.1288 7.38879 20.8627 7.54914C20.8329 7.55266 20.8033 7.55813 20.7742 7.56541L7.93314 12.6591C7.77775 12.7198 7.65345 12.8402 7.58827 12.9933H3.68861L24.9785 4.54861L30.556 18.5L27.6394 19.6589Z" fill="#2D2D2D"/>
<path d="M2.96121 25.0386C4.1808 25.3977 5.13514 26.3472 5.49712 27.5616C5.57651 27.8267 5.82126 28.0084 6.09891 28.0084C6.13149 28.0064 6.16385 28.0016 6.19565 27.9941C6.22384 28.002 6.25265 28.0079 6.28171 28.0116H21.3577C21.3837 28.0082 21.4093 28.003 21.4344 27.9959C21.7482 28.072 22.0645 27.8802 22.1409 27.5676C22.1412 27.5664 22.1415 27.5653 22.1417 27.5642C22.5027 26.3485 23.4572 25.3976 24.6776 25.038C24.9736 24.9478 25.1575 24.654 25.1085 24.3496C25.1169 24.3193 25.123 24.2883 25.1268 24.257V19.2509C25.1231 19.2195 25.1168 19.1886 25.1079 19.1583C25.1571 18.8538 24.9732 18.5598 24.677 18.47C23.4566 18.1104 22.5024 17.1591 22.1423 15.9431C22.0514 15.6463 21.7536 15.4626 21.4463 15.5139C21.4173 15.5058 21.3877 15.4999 21.3577 15.4963H6.28171C6.25006 15.5001 6.21873 15.5063 6.18811 15.5151C5.88258 15.4666 5.58782 15.6497 5.49712 15.9444C5.13585 17.1598 4.18142 18.1104 2.96121 18.47C2.66526 18.5601 2.48137 18.8539 2.53028 19.1583C2.52212 19.1887 2.51623 19.2196 2.5127 19.2509V24.257C2.51631 24.2864 2.5222 24.3155 2.53028 24.344C2.47877 24.6504 2.66306 24.9475 2.96121 25.0386ZM3.76903 19.505C5.03039 19.0003 6.03012 18.0044 6.53674 16.7479H21.1021C21.6089 18.0044 22.6089 19.0003 23.8704 19.505V24.0029C22.6095 24.5082 21.6099 25.5039 21.1027 26.76H6.53674C6.02958 25.5039 5.03 24.5082 3.76903 24.0029V19.505Z" fill="#2D2D2D"/>
<path d="M13.8197 25.5084C15.9013 25.5084 17.5887 23.8275 17.5887 21.7538C17.5887 19.6802 15.9013 17.9993 13.8197 17.9993C11.7381 17.9993 10.0507 19.6802 10.0507 21.7538C10.0527 23.8266 11.7389 25.5064 13.8197 25.5084ZM13.8197 19.2508C15.2074 19.2508 16.3323 20.3715 16.3323 21.7538C16.3323 23.1362 15.2074 24.2569 13.8197 24.2569C12.432 24.2569 11.307 23.1362 11.307 21.7538C11.307 20.3715 12.432 19.2508 13.8197 19.2508Z" fill="#2D2D2D"/>
<path d="M6.9099 22.6925C7.43026 22.6925 7.85216 22.2722 7.85216 21.7538C7.85216 21.2355 7.43026 20.8152 6.9099 20.8152C6.38955 20.8152 5.96765 21.2355 5.96765 21.7538C5.96765 22.2723 6.38955 22.6925 6.9099 22.6925ZM6.9099 21.4409C7.08336 21.4409 7.22399 21.581 7.22399 21.7538C7.22399 21.9266 7.08336 22.0667 6.9099 22.0667C6.73645 22.0667 6.59582 21.9266 6.59582 21.7538C6.59582 21.581 6.73645 21.4409 6.9099 21.4409Z" fill="#2D2D2D"/>
<path d="M20.7296 22.6925C21.25 22.6925 21.6719 22.2722 21.6719 21.7538C21.6719 21.2355 21.25 20.8152 20.7296 20.8152C20.2092 20.8152 19.7874 21.2355 19.7874 21.7538C19.7874 22.2723 20.2092 22.6925 20.7296 22.6925ZM20.7296 21.4409C20.9031 21.4409 21.0437 21.581 21.0437 21.7538C21.0437 21.9266 20.9031 22.0667 20.7296 22.0667C20.5562 22.0667 20.4155 21.9266 20.4155 21.7538C20.4155 21.581 20.5562 21.4409 20.7296 21.4409Z" fill="#2D2D2D"/>
</svg>
