<svg width="30" height="30" viewBox="0 0 30 30" fill="none" xmlns="http://www.w3.org/2000/svg">
<path d="M28.1463 29.469C28.0475 29.469 27.9488 29.4453 27.8575 29.398L23.8463 27.3135C23.79 27.2849 23.7388 27.245 23.6925 27.2015L15.7113 19.2533C15.4675 19.0105 15.4675 18.6145 15.7113 18.3729L17.6313 16.459C17.865 16.2249 18.2825 16.2249 18.515 16.459L26.495 24.4084C26.54 24.4533 26.5775 24.5043 26.6075 24.5616L28.7 28.5587C28.8263 28.7991 28.7788 29.0942 28.5875 29.2859C28.4663 29.4067 28.3075 29.469 28.1463 29.469ZM24.5063 26.2551L26.6713 27.3795L25.5425 25.2228L18.07 17.7814L17.035 18.815L24.5063 26.2551Z" fill="#2D2D2D"/>
<path d="M15.7112 19.2546L14.5337 18.0841C14.1087 17.6595 13.8387 17.1241 13.7725 16.5774C13.7012 15.981 13.8837 15.4181 14.2725 15.0309C14.6037 14.6996 15.0637 14.5166 15.5675 14.5166H15.5687C16.1975 14.5166 16.8437 14.7993 17.3387 15.2911L18.5137 16.4629L17.63 17.3432L16.455 16.1715C16.1962 15.915 15.865 15.7618 15.57 15.7618C15.42 15.7655 15.2825 15.788 15.1575 15.9112C14.9975 16.0706 14.9987 16.3047 15.0137 16.4305C15.045 16.6995 15.195 16.9809 15.4175 17.205L16.595 18.3768L15.7112 19.2546Z" fill="#2D2D2D"/>
<path d="M24.7063 23.7664L25.5903 24.6483L23.6691 26.5594L22.785 25.6774L24.7063 23.7664Z" fill="#2D2D2D"/>
<path d="M19.0722 17.8938L19.9559 18.7742L18.0362 20.6865L17.1525 19.8061L19.0722 17.8938Z" fill="#2D2D2D"/>
<path d="M29.375 13.1668C29.0312 13.1668 28.75 12.8878 28.75 12.5441V8.80852C28.75 6.74894 27.0675 5.07288 25 5.07288H14.5312C14.1862 5.07288 13.9062 4.79396 13.9062 4.45028C13.9062 3.47777 12.3575 1.33725 10.7025 1.33725H4.4525C2.8075 1.33725 1.25 3.03945 1.25 4.84003V12.5454C1.25 12.8891 0.97 13.168 0.625 13.168C0.28 13.168 0 12.8891 0 12.5454V4.84003C0 2.35583 2.1225 0.092041 4.45375 0.092041H10.7037C12.795 0.092041 14.66 2.20267 15.0725 3.82767H25C27.7588 3.82767 30 6.06158 30 8.80852V12.5441C30 12.8878 29.72 13.1668 29.375 13.1668Z" fill="#2D2D2D"/>
<path d="M4.40125 29.977C1.9525 29.977 0 28.0333 0 25.6449V12.5441C0 12.2004 0.28 11.9215 0.625 11.9215C0.97 11.9215 1.25 12.2004 1.25 12.5441V25.6449C1.25 27.3471 2.64 28.7318 4.34875 28.7318C6.11125 28.7318 7.5 27.3471 7.5 25.6449V11.9215C7.5 9.51821 9.4625 7.56323 11.875 7.56323H25.625C28.0387 7.56323 30 9.51821 30 11.9215V21.2606C30 21.603 29.72 21.8832 29.375 21.8832C29.0312 21.8832 28.75 21.603 28.75 21.2606V11.9215C28.75 10.2056 27.3487 8.80844 25.625 8.80844H11.875C10.1538 8.80844 8.75 10.2056 8.75 11.9215V25.6449C8.75 28.0333 6.79875 29.977 4.40125 29.977Z" fill="#2D2D2D"/>
<path d="M21.25 29.9771H5C4.655 29.9771 4.375 29.697 4.375 29.3545C4.375 29.0121 4.65625 28.7319 5 28.7319H21.25C21.595 28.7319 21.875 29.0121 21.875 29.3545C21.875 29.697 21.595 29.9771 21.25 29.9771Z" fill="#2D2D2D"/>
</svg>
