<svg width="30" height="32" viewBox="0 0 30 32" fill="none" xmlns="http://www.w3.org/2000/svg">
<path d="M0.20033 21.1363L3.20249 26.2842C3.37926 26.5821 3.6574 26.807 3.98642 26.918C4.16014 26.9749 4.34401 26.9943 4.52583 26.9749C4.70764 26.9556 4.88326 26.898 5.04104 26.806L8.12405 25.4052C8.77489 25.8655 9.46682 26.2652 10.1911 26.5994L10.504 30.0102C10.5027 30.0347 10.5027 30.0593 10.504 30.0838C10.5628 30.4101 10.7326 30.7062 10.9849 30.9224C11.2371 31.1386 11.5564 31.2617 11.889 31.2709H17.8898C18.2435 31.2721 18.5847 31.1405 18.8453 30.9023C19.1059 30.6641 19.2668 30.3369 19.296 29.9857L19.6054 26.5994C20.3338 26.2767 21.0276 25.8813 21.6759 25.4192L24.773 26.841H24.8046C25.1236 26.9762 25.4808 26.9919 25.8104 26.885C26.14 26.7782 26.4196 26.556 26.5975 26.2597L29.5821 21.1433C29.7642 20.8364 29.8255 20.4731 29.754 20.1237C29.6826 19.7743 29.4835 19.4638 29.1954 19.2523L26.5975 17.2807C26.7157 16.4772 26.7157 15.6609 26.5975 14.8574L29.4098 12.8718C29.6985 12.6608 29.8983 12.3505 29.9704 12.0011C30.0425 11.6517 29.9818 11.2881 29.8 10.9807L26.7205 5.83988C26.638 5.68257 26.5246 5.5434 26.387 5.43065C26.2494 5.3179 26.0904 5.23387 25.9195 5.18355C25.7486 5.13324 25.5694 5.11767 25.3923 5.13778C25.2153 5.15788 25.0441 5.21325 24.889 5.30058L21.806 6.70136C21.1549 6.24243 20.463 5.84388 19.7389 5.5107L19.4296 2.09982C19.4296 2.0753 19.4296 2.05079 19.4296 2.02627C19.3708 1.70001 19.2009 1.40387 18.9487 1.18766C18.6964 0.971461 18.3772 0.848379 18.0445 0.839119H12.0332C11.6789 0.837988 11.3373 0.970089 11.0766 1.20901C10.8159 1.44794 10.6554 1.77608 10.627 2.12783L10.3177 5.5107C9.58526 5.83493 8.88794 6.23271 8.23654 6.69786L5.15353 5.28658H5.1219C4.80262 5.15417 4.44607 5.14115 4.11791 5.2499C3.78976 5.35865 3.5121 5.58185 3.33607 5.8784L0.344462 10.9807C0.160866 11.2912 0.100542 11.6589 0.175357 12.0114C0.250171 12.364 0.454709 12.6759 0.748733 12.8858L3.53996 14.8609C3.42384 15.6551 3.42384 16.4619 3.53996 17.2562L0.583509 19.2523C0.297123 19.4636 0.0994689 19.7731 0.0287043 20.121C-0.0420603 20.4689 0.019083 20.8307 0.20033 21.1363ZM1.41314 20.3904L4.69302 18.1632C4.80529 18.0876 4.89323 17.9812 4.94624 17.857C4.99926 17.7327 5.01509 17.5958 4.99183 17.4628C4.91344 16.9997 4.86879 16.5316 4.85824 16.062C4.86754 15.5831 4.91219 15.1056 4.99183 14.6332C5.0106 14.5056 4.99362 14.3753 4.94276 14.2566C4.89189 14.138 4.80911 14.0356 4.70356 13.9609L1.58188 11.7476C1.57279 11.7408 1.56571 11.7317 1.56138 11.7212C1.55704 11.7108 1.55563 11.6993 1.55728 11.6881L4.54537 6.56828C4.55925 6.56513 4.57367 6.56513 4.58755 6.56828L8.04671 8.15466C8.16632 8.20929 8.29891 8.2294 8.42942 8.21268C8.55993 8.19597 8.68311 8.14311 8.78495 8.06011C9.54135 7.47186 10.3768 6.9921 11.2668 6.63482C11.3832 6.58481 11.4839 6.50437 11.5581 6.40204C11.6324 6.29971 11.6775 6.17928 11.6887 6.0535L12.0402 2.2469H18.0164C18.0299 2.26048 18.0397 2.2774 18.0445 2.29592L18.3961 6.06401C18.4072 6.18979 18.4524 6.31021 18.5266 6.41255C18.6009 6.51488 18.7015 6.59531 18.8179 6.64533C19.7085 7.02367 20.5491 7.5094 21.3209 8.09163C21.4208 8.16521 21.5385 8.2111 21.662 8.22464C21.7855 8.23817 21.9104 8.21886 22.024 8.16867L25.5112 6.57179L28.5802 11.7126C28.5828 11.7265 28.5828 11.7408 28.5802 11.7547L25.4304 13.9609C25.3254 14.0353 25.243 14.1371 25.1922 14.2551C25.1413 14.373 25.124 14.5026 25.1421 14.6297C25.2207 15.1033 25.2642 15.5821 25.2722 16.062C25.2629 16.5409 25.2183 17.0185 25.1386 17.4908C25.1183 17.6172 25.1331 17.7466 25.1815 17.8651C25.2298 17.9837 25.3098 18.0868 25.4128 18.1632L28.3552 20.3729C28.3643 20.3797 28.3714 20.3888 28.3757 20.3993C28.38 20.4098 28.3815 20.4212 28.3798 20.4324L25.3777 25.5523H25.3355L21.8763 23.9659C21.7567 23.9113 21.6241 23.8912 21.4936 23.9079C21.3631 23.9246 21.2399 23.9775 21.1381 24.0605C20.3816 24.6485 19.5462 25.1283 18.6562 25.4857C18.5398 25.5358 18.4392 25.6162 18.3649 25.7185C18.2906 25.8209 18.2455 25.9413 18.2344 26.0671L17.8828 29.8737H11.9066C11.8936 29.8611 11.8839 29.8454 11.8785 29.8281L11.527 26.0601C11.5163 25.9387 11.474 25.8222 11.4044 25.7221C11.3347 25.622 11.24 25.5418 11.1297 25.4892C10.2394 25.1118 9.39886 24.6273 8.62675 24.0464C8.52685 23.9729 8.40915 23.927 8.28565 23.9134C8.16214 23.8999 8.03725 23.9192 7.92367 23.9694L4.43639 25.5663L1.41314 20.4254C1.41314 20.4254 1.42721 20.3799 1.41314 20.3904Z" fill="#2D2D2D"/>
<path d="M14.9967 21.378C16.0521 21.378 17.0839 21.0662 17.9614 20.4821C18.839 19.898 19.523 19.0677 19.9269 18.0964C20.3308 17.125 20.4364 16.0561 20.2305 15.0249C20.0246 13.9938 19.5164 13.0465 18.7701 12.3031C18.0238 11.5597 17.0729 11.0534 16.0378 10.8482C15.0026 10.6431 13.9296 10.7484 12.9545 11.1507C11.9794 11.5531 11.146 12.2345 10.5596 13.1087C9.97327 13.9829 9.6603 15.0106 9.6603 16.062C9.65181 16.7625 9.78404 17.4575 10.0492 18.1063C10.3144 18.7551 10.7071 19.3445 11.2044 19.8398C11.7016 20.3351 12.2933 20.7264 12.9445 20.9905C13.5958 21.2547 14.2935 21.3864 14.9967 21.378ZM14.9967 12.1469C15.774 12.1469 16.5339 12.3765 17.1802 12.8067C17.8265 13.2369 18.3303 13.8484 18.6277 14.5638C18.9252 15.2792 19.003 16.0664 18.8514 16.8258C18.6997 17.5853 18.3254 18.2829 17.7758 18.8305C17.2261 19.378 16.5258 19.7509 15.7634 19.902C15.001 20.053 14.2108 19.9755 13.4926 19.6792C12.7745 19.3828 12.1607 18.881 11.7288 18.2372C11.297 17.5933 11.0665 16.8364 11.0665 16.062C11.0608 15.5463 11.1586 15.0347 11.3541 14.5571C11.5496 14.0796 11.8389 13.6457 12.205 13.2811C12.5711 12.9164 13.0066 12.6282 13.486 12.4334C13.9654 12.2387 14.479 12.1412 14.9967 12.1469Z" fill="#2D2D2D"/>
</svg>
