<svg width="30" height="30" viewBox="0 0 30 30" fill="none" xmlns="http://www.w3.org/2000/svg">
<path fill-rule="evenodd" clip-rule="evenodd" d="M12.1876 26.2231C12.1303 26.2231 12.0729 26.2125 12.0176 26.1915L0.328242 21.6463C0.148359 21.5761 0.0292969 21.4027 0.0292969 21.2093V7.71134C0.0292969 7.51786 0.148301 7.34419 0.328242 7.27435L12.0176 2.72917C12.1273 2.68663 12.2485 2.68663 12.3577 2.72917L24.0476 7.2744C24.2275 7.34425 24.3466 7.51792 24.3466 7.7114V15.5845H23.409V8.39636L12.6564 12.5774V25.0693L18.4643 22.8112L18.8041 23.6849L12.3577 26.1915C12.303 26.2125 12.2456 26.2231 12.1876 26.2231ZM11.719 12.5775L8.78689 11.4373V13.9976C8.78689 14.2402 8.64451 14.4627 8.42414 14.5645C8.34105 14.6027 8.25182 14.6215 8.16346 14.6215C8.01744 14.6215 7.87277 14.5704 7.75811 14.4725L6.15023 13.1029L4.70871 13.5511C4.52022 13.6097 4.31197 13.5752 4.15342 13.4582C3.99387 13.3411 3.899 13.1533 3.899 12.9552V9.53659L0.966914 8.39642V20.8887L11.719 25.0694V12.5775ZM22.5841 7.71128L20.0074 6.70944C16.542 8.05704 13.0766 9.40464 9.61143 10.7519L12.1876 11.7537L22.5841 7.71128ZM4.36787 8.71306L14.7635 4.67056L12.1876 3.66907L1.79168 7.71128L4.36787 8.71306ZM7.84928 11.0727L4.8365 9.90116V12.5294L6.11789 12.131C6.27146 12.0833 6.43846 12.1175 6.5608 12.2217L7.84928 13.3188V11.0727ZM5.66104 9.21591L8.31779 10.249C11.7831 8.9019 15.2487 7.55425 18.714 6.20659L16.0567 5.17341L5.66104 9.21591Z" fill="#2D2D2D"/>
<path fill-rule="evenodd" clip-rule="evenodd" d="M23.8776 16.0533C21.0348 16.0533 18.7214 18.3661 18.7214 21.2092C18.7214 24.0522 21.0348 26.3651 23.8776 26.3651C26.7206 26.3651 29.0331 24.0523 29.0331 21.2092C29.0331 18.3661 26.7206 16.0533 23.8776 16.0533ZM20.9004 20.7066C21.0065 20.7066 21.1057 20.754 21.1712 20.8368L22.3085 22.2677C22.3913 22.3721 22.5156 22.4364 22.6483 22.444C22.7824 22.4519 22.912 22.4018 23.0069 22.3076L26.3387 18.9755C26.4042 18.9102 26.4909 18.874 26.5835 18.874C26.6762 18.874 26.7635 18.9103 26.8284 18.9755C26.9639 19.1106 26.9639 19.3304 26.8284 19.4658L22.8517 23.4429C22.7679 23.5266 22.6731 23.5441 22.6082 23.5444C22.4918 23.5444 22.3876 23.49 22.3221 23.3954C22.3161 23.3875 22.3102 23.3796 22.3043 23.3721L20.6311 21.2665C20.5734 21.1944 20.5477 21.1041 20.5583 21.0125C20.5688 20.9209 20.6146 20.8388 20.6865 20.7814C20.7647 20.7195 20.846 20.7066 20.9004 20.7066ZM22.6082 24.4816C22.1932 24.4816 21.8033 24.2812 21.5628 23.9452L19.8975 21.8498C19.684 21.5816 19.5881 21.2464 19.6266 20.906C19.6659 20.5656 19.8346 20.2607 20.1028 20.0476C20.3293 19.868 20.6123 19.7691 20.9004 19.7691C21.2942 19.7691 21.6607 19.9458 21.9051 20.2536L22.7152 21.2732L25.6759 18.3129C25.9184 18.0703 26.2408 17.9368 26.5834 17.9368C26.9268 17.9368 27.2491 18.0703 27.4917 18.3129C27.992 18.8135 27.992 19.6281 27.4917 20.1287L23.5143 24.1058C23.2718 24.3482 22.9503 24.4816 22.6082 24.4816ZM23.8776 27.3026C20.5174 27.3026 17.7838 24.569 17.7838 21.2092C17.7838 17.8494 20.5174 15.1157 23.8776 15.1157C27.2374 15.1157 29.9707 17.8494 29.9707 21.2092C29.9707 24.569 27.2374 27.3026 23.8776 27.3026Z" fill="#2D2D2D"/>
</svg>
