<svg width="30" height="30" viewBox="0 0 30 30" fill="none" xmlns="http://www.w3.org/2000/svg">
<g clip-path="url(#clip0_213_114)">
<path d="M20.839 9.91813C20.9803 9.87941 21.107 9.80007 21.2036 9.68996C21.3002 9.57986 21.3623 9.44383 21.3823 9.29874C21.4694 8.68559 21.4694 8.0632 21.3823 7.45005C21.362 7.30476 21.2995 7.16864 21.2025 7.05859C21.1055 6.94854 20.9783 6.86942 20.8367 6.83106L20.019 6.60425C19.9564 6.42459 19.8836 6.24866 19.8009 6.07731L20.2193 5.33786C20.2924 5.21112 20.3263 5.06555 20.3167 4.91954C20.3071 4.77354 20.2545 4.63365 20.1654 4.51755C19.7945 4.02086 19.3542 3.58003 18.8579 3.20856C18.7413 3.1196 18.601 3.0672 18.4547 3.05798C18.3083 3.04876 18.1625 3.08314 18.0357 3.15677L17.2969 3.57325C17.1252 3.49107 16.9492 3.41832 16.7695 3.35534L16.5437 2.5396C16.5061 2.39749 16.4272 2.26974 16.3169 2.17254C16.2066 2.07535 16.07 2.01308 15.9243 1.99362C15.3109 1.90479 14.6879 1.90479 14.0745 1.99362C13.9293 2.01366 13.7932 2.07591 13.6831 2.17265C13.5731 2.26939 13.4939 2.39634 13.4554 2.53772L13.229 3.35546C13.0497 3.41875 12.8739 3.49159 12.7024 3.57366L11.9675 3.15853C11.8404 3.08413 11.6941 3.04917 11.5472 3.05811C11.4002 3.06704 11.2592 3.11945 11.1421 3.20868C10.6454 3.58025 10.2046 4.02112 9.83303 4.51784C9.74479 4.63454 9.69284 4.77463 9.68368 4.92065C9.67451 5.06667 9.70852 5.21215 9.78146 5.33897L10.1989 6.07661C10.1166 6.24865 10.0435 6.42491 9.97975 6.60466L9.16119 6.83171C9.02011 6.87031 8.89345 6.94946 8.79691 7.05933C8.70036 7.16921 8.63816 7.305 8.61803 7.44987C8.52908 8.06333 8.52908 8.6864 8.61803 9.29985C8.63833 9.44512 8.70085 9.58122 8.79783 9.69127C8.89481 9.80131 9.02197 9.88044 9.16354 9.91884L9.97975 10.1452C10.0435 10.3249 10.1167 10.5012 10.1989 10.6732L9.78082 11.412C9.70809 11.5389 9.67431 11.6844 9.68369 11.8303C9.69306 11.9763 9.74518 12.1162 9.83356 12.2328C10.205 12.7292 10.6457 13.1698 11.1421 13.5412C11.2587 13.6302 11.3991 13.6827 11.5456 13.6919C11.692 13.7011 11.8379 13.6666 11.9647 13.5929L12.7024 13.1761C12.8739 13.2582 13.0497 13.3311 13.229 13.3944L13.4554 14.2121L13.4561 14.2149C13.4949 14.3557 13.5742 14.482 13.684 14.5782C13.7939 14.6744 13.9295 14.7363 14.0742 14.7562C14.6876 14.845 15.3106 14.845 15.924 14.7562C16.0694 14.7369 16.2058 14.6749 16.316 14.578C16.4262 14.4812 16.5052 14.3538 16.543 14.2121L16.7695 13.3945C16.9491 13.3315 17.1252 13.2587 17.2969 13.1766L18.0326 13.5913C18.1599 13.6653 18.3063 13.7 18.4532 13.691C18.6002 13.682 18.7412 13.6297 18.8585 13.5408C19.3536 13.1702 19.7929 12.7305 20.163 12.2352C20.253 12.1188 20.3063 11.9782 20.3162 11.8315C20.3261 11.6847 20.2922 11.5383 20.2187 11.4109L19.8005 10.6718C19.8833 10.5004 19.9567 10.3246 20.0204 10.1452L20.839 9.91813ZM19.7663 9.36419C19.6477 9.39586 19.5389 9.45661 19.4496 9.54092C19.3604 9.62523 19.2937 9.73045 19.2554 9.84706C19.1962 10.017 19.1267 10.1831 19.0472 10.3445C18.9934 10.4543 18.9673 10.5757 18.9712 10.6979C18.975 10.8202 19.0087 10.9397 19.0693 11.0459L19.4822 11.7754C19.1728 12.1835 18.8093 12.5475 18.4018 12.8575L17.6723 12.4464C17.5662 12.3844 17.4462 12.3498 17.3233 12.3459C17.2004 12.342 17.0784 12.3688 16.9685 12.4239C16.806 12.5031 16.6388 12.5721 16.4677 12.6307C16.3522 12.6702 16.2482 12.7374 16.1646 12.8264C16.081 12.9154 16.0204 13.0235 15.9882 13.1412L15.7643 13.9501C15.2566 14.0197 14.7418 14.0197 14.2341 13.9501L14.011 13.1442C13.9799 13.0255 13.9196 12.9163 13.8358 12.8267C13.7519 12.737 13.647 12.6696 13.5305 12.6307C13.3603 12.5719 13.1938 12.5029 13.0319 12.4241C12.9222 12.3689 12.8004 12.342 12.6777 12.3457C12.5549 12.3493 12.435 12.3835 12.3288 12.445L11.5986 12.8576C11.191 12.5478 10.8274 12.1841 10.5176 11.7766L10.9324 11.0437C10.9922 10.9377 11.0252 10.8187 11.0287 10.697C11.0321 10.5754 11.0058 10.4547 10.952 10.3455C10.8731 10.183 10.8038 10.0161 10.7445 9.84548C10.7055 9.72939 10.6384 9.62472 10.5493 9.54074C10.4602 9.45676 10.3517 9.39608 10.2335 9.36407L9.42434 9.13966C9.35473 8.63227 9.35473 8.11775 9.42434 7.61036L10.2343 7.38571C10.3521 7.35344 10.4602 7.29276 10.5491 7.20899C10.638 7.12522 10.7049 7.02092 10.7441 6.90524C10.8034 6.73477 10.8726 6.56792 10.9514 6.40556C11.0055 6.29582 11.0319 6.17452 11.0283 6.05225C11.0247 5.92997 10.9913 5.81041 10.931 5.70401L10.5175 4.97341C10.8273 4.56594 11.1909 4.20232 11.5984 3.89247L12.3263 4.30362C12.4327 4.36582 12.5529 4.40045 12.6761 4.40438C12.7993 4.40831 12.9215 4.38141 13.0317 4.32612C13.1931 4.24752 13.3592 4.17869 13.5289 4.11999C13.6453 4.08145 13.7503 4.01454 13.8343 3.9253C13.9184 3.83606 13.9789 3.72729 14.0105 3.60882L14.2344 2.80022C14.7421 2.73073 15.2569 2.73073 15.7646 2.80022L15.9892 3.61175C16.0217 3.72917 16.0825 3.83686 16.1662 3.92545C16.2498 4.01404 16.3539 4.08084 16.4692 4.12005C16.6397 4.17845 16.8064 4.24731 16.9684 4.32624C17.0778 4.38136 17.1993 4.40834 17.3218 4.40474C17.4442 4.40113 17.5639 4.36707 17.6699 4.30562L18.4023 3.89288C18.8096 4.20289 19.173 4.56678 19.4824 4.97458L19.0683 5.70636C19.008 5.81212 18.9746 5.93109 18.971 6.05281C18.9674 6.17452 18.9938 6.29525 19.0478 6.40438C19.1277 6.56706 19.197 6.73476 19.2552 6.90642C19.2948 7.02214 19.3622 7.12639 19.4514 7.21002C19.5407 7.29364 19.6491 7.35409 19.7672 7.38606L20.5763 7.61042C20.6444 8.11791 20.6444 8.63223 20.5763 9.13972L19.7663 9.36419ZM15 4.88774C14.3103 4.88789 13.6361 5.09257 13.0627 5.47588C12.4893 5.85918 12.0425 6.40392 11.7787 7.04119C11.5149 7.67845 11.446 8.37964 11.5807 9.05606C11.7154 9.73249 12.0477 10.3538 12.5355 10.8414C13.0233 11.3289 13.6448 11.6609 14.3213 11.7953C14.9977 11.9297 15.6989 11.8605 16.336 11.5964C16.9732 11.3323 17.5177 10.8852 17.9007 10.3116C18.2838 9.73805 18.4881 9.06378 18.488 8.37407C18.4867 7.44955 18.1188 6.56328 17.4649 5.90969C16.811 5.25611 15.9245 4.88858 15 4.88774ZM15 11.0416C14.4727 11.0414 13.9572 10.8849 13.5188 10.5918C13.0804 10.2987 12.7387 9.88224 12.537 9.395C12.3353 8.90776 12.2825 8.37166 12.3854 7.85445C12.4884 7.33725 12.7423 6.86217 13.1152 6.48928C13.4881 6.11639 13.9632 5.86243 14.4804 5.75951C14.9976 5.65659 15.5337 5.70933 16.0209 5.91106C16.5082 6.11279 16.9246 6.45446 17.2177 6.89286C17.5108 7.33127 17.6673 7.84673 17.6675 8.37407C17.6667 9.08129 17.3854 9.75931 16.8853 10.2594C16.3852 10.7595 15.7072 11.0408 15 11.0416ZM8.89852 20.1337L4.75594 17.7435C4.69359 17.7075 4.62286 17.6886 4.55086 17.6886C4.47886 17.6886 4.40813 17.7075 4.34578 17.7435L2.27455 18.9379L0.205078 20.1338C0.142728 20.1698 0.0909518 20.2216 0.0549531 20.2839C0.0189545 20.3463 1.83181e-06 20.417 2.82974e-09 20.489V25.2726C-8.45419e-06 25.3446 0.0189393 25.4153 0.0549385 25.4777C0.0909376 25.54 0.142719 25.5918 0.205078 25.6278L2.27496 26.8238L4.34613 28.018C4.40848 28.054 4.47921 28.073 4.55121 28.073C4.62321 28.073 4.69394 28.054 4.75629 28.018L6.8277 26.8237L8.89887 25.6279C8.96123 25.5919 9.01302 25.5401 9.04902 25.4777C9.08502 25.4153 9.10396 25.3446 9.10394 25.2726V20.489C9.10392 20.4169 9.08492 20.3462 9.04885 20.2838C9.01279 20.2214 8.96094 20.1697 8.89852 20.1337ZM2.68471 19.6485L4.55098 18.5725L7.87266 20.489L4.55098 22.407L1.22965 20.4893L2.68471 19.6485ZM0.820312 25.0358V21.2005L4.14059 23.1177V26.9526L2.68506 26.1132L0.820312 25.0358ZM4.96107 26.9524V23.1177L8.28299 21.1995V25.0357L4.96107 26.9524ZM16.6154 7.11735C16.6535 7.15544 16.6837 7.20066 16.7043 7.25042C16.7249 7.30019 16.7355 7.35353 16.7355 7.40739C16.7355 7.46126 16.7249 7.5146 16.7043 7.56436C16.6837 7.61413 16.6535 7.65934 16.6154 7.69743L14.6805 9.63278C14.6425 9.67089 14.5973 9.70113 14.5475 9.72177C14.4978 9.74241 14.4444 9.75305 14.3906 9.75308C14.3367 9.7531 14.2834 9.74252 14.2336 9.72193C14.1838 9.70134 14.1386 9.67115 14.1005 9.63308L13.383 8.91718C13.306 8.84033 13.2626 8.73604 13.2625 8.62724C13.2624 8.51845 13.3055 8.41406 13.3823 8.33704C13.4592 8.26002 13.5635 8.21669 13.6723 8.21657C13.7811 8.21645 13.8855 8.25955 13.9625 8.3364L14.3902 8.76278L16.0354 7.11735C16.0734 7.07925 16.1187 7.04903 16.1684 7.02841C16.2182 7.00779 16.2715 6.99718 16.3254 6.99718C16.3793 6.99718 16.4326 7.00779 16.4824 7.02841C16.5322 7.04903 16.5774 7.07925 16.6155 7.11735H16.6154ZM21.8478 8.22794C21.8478 8.11916 21.891 8.01483 21.9679 7.93792C22.0448 7.861 22.1492 7.81778 22.2579 7.81778H25.3838C25.4926 7.81778 25.5969 7.861 25.6738 7.93792C25.7508 8.01483 25.794 8.11916 25.794 8.22794V16.6589C25.794 16.7677 25.7508 16.872 25.6738 16.9489C25.5969 17.0258 25.4926 17.069 25.3838 17.069C25.275 17.069 25.1707 17.0258 25.0938 16.9489C25.0169 16.872 24.9737 16.7677 24.9737 16.6589V8.63821H22.2584C22.2045 8.63823 22.1511 8.62763 22.1013 8.60701C22.0516 8.5864 22.0063 8.55618 21.9682 8.51808C21.9301 8.47998 21.8999 8.43475 21.8793 8.38496C21.8587 8.33518 21.8481 8.28182 21.8481 8.22794H21.8478ZM4.14076 16.6589V8.22794C4.14076 8.11916 4.18397 8.01483 4.26089 7.93792C4.33781 7.861 4.44214 7.81778 4.55092 7.81778H7.67684C7.78562 7.81778 7.88994 7.861 7.96686 7.93792C8.04378 8.01483 8.08699 8.11916 8.08699 8.22794C8.08699 8.33672 8.04378 8.44104 7.96686 8.51796C7.88994 8.59488 7.78562 8.63809 7.67684 8.63809H4.96125V16.6589C4.96125 16.7677 4.91804 16.872 4.84112 16.9489C4.7642 17.0258 4.65987 17.069 4.55109 17.069C4.44231 17.069 4.33799 17.0258 4.26107 16.9489C4.18415 16.872 4.14094 16.7677 4.14094 16.6589H4.14076ZM19.3458 20.1338L17.2761 18.9375L15.2051 17.7435C15.1428 17.7076 15.0721 17.6887 15.0002 17.6887C14.9282 17.6887 14.8576 17.7076 14.7953 17.7435L12.7239 18.9378L10.6523 20.1337C10.59 20.1697 10.5382 20.2215 10.5022 20.2839C10.4662 20.3462 10.4473 20.417 10.4473 20.489V25.2726C10.4472 25.3446 10.4662 25.4153 10.5022 25.4777C10.5382 25.5401 10.59 25.5919 10.6523 25.6279L14.7949 28.018C14.8572 28.054 14.9279 28.0729 14.9998 28.0729C15.0718 28.0729 15.1424 28.054 15.2047 28.018L17.2762 26.8237L19.3458 25.6278C19.4082 25.5918 19.46 25.54 19.496 25.4777C19.532 25.4153 19.5509 25.3446 19.5509 25.2726V20.489C19.5509 20.417 19.532 20.3463 19.496 20.2839C19.4601 20.2216 19.4083 20.1698 19.346 20.1338H19.3458ZM15 18.5725L16.8659 19.6484L18.3212 20.4893L15 22.407L11.6777 20.4895L15 18.5725ZM11.2679 21.2005L14.5898 23.1177V26.9524L11.2679 25.0357L11.2679 21.2005ZM16.8663 26.113L15.4102 26.9526V23.1177L18.7304 21.2004V25.0358L16.8663 26.113ZM29.7949 20.1337L25.6523 17.7435C25.59 17.7076 25.5194 17.6887 25.4474 17.6887C25.3755 17.6887 25.3048 17.7076 25.2425 17.7435L23.1709 18.9379L21.1014 20.1338C21.039 20.1698 20.9872 20.2216 20.9512 20.2839C20.9152 20.3463 20.8963 20.417 20.8963 20.489V25.2726C20.8963 25.3446 20.9152 25.4153 20.9512 25.4777C20.9872 25.54 21.039 25.5918 21.1014 25.6278L23.1712 26.8238L25.2422 28.018C25.3045 28.054 25.3752 28.0729 25.4471 28.0729C25.519 28.0729 25.5897 28.054 25.652 28.018L27.7235 26.8237L29.7949 25.6279C29.8573 25.5919 29.9091 25.5401 29.9451 25.4777C29.9811 25.4153 30 25.3446 30 25.2726V20.489C30 20.417 29.9811 20.3462 29.9451 20.2839C29.9091 20.2215 29.8573 20.1697 29.7949 20.1337ZM23.5811 19.6485L25.4473 18.5725L28.7689 20.489L25.4473 22.407L22.1259 20.4893L23.5811 19.6485ZM21.7168 25.0358V21.2005L25.0371 23.1177V26.9525L23.5814 26.1132L21.7168 25.0358ZM25.8576 26.9524V23.1177L29.1797 21.1995V25.0357L25.8576 26.9524Z" fill="#2D2D2D"/>
</g>
<defs>
<clipPath id="clip0_213_114">
<rect width="30" height="30" fill="white"/>
</clipPath>
</defs>
</svg>
