<svg width="100" height="100" viewBox="0 0 100 100" fill="none" xmlns="http://www.w3.org/2000/svg">
<g clip-path="url(#clip0_215_386)">
<path d="M46.3544 19.7039C46.3544 19.2895 46.519 18.8921 46.8121 18.5991C47.1051 18.306 47.5025 18.1414 47.9169 18.1414H65.6904C69.3498 18.1456 72.8581 19.6011 75.4457 22.1887C78.0332 24.7762 79.4888 28.2846 79.4929 31.944V38.1764L84.9111 31.3057C85.0381 31.1445 85.1957 31.01 85.3747 30.9098C85.5538 30.8096 85.7508 30.7456 85.9546 30.7215C86.1584 30.6974 86.3649 30.7137 86.5624 30.7694C86.7599 30.8251 86.9445 30.9192 87.1056 31.0463C87.2667 31.1734 87.4012 31.3309 87.5015 31.51C87.6017 31.689 87.6657 31.8861 87.6898 32.0898C87.7139 32.2936 87.6976 32.5002 87.6419 32.6976C87.5861 32.8951 87.492 33.0797 87.365 33.2408L79.1574 43.6486C79.0111 43.8341 78.8247 43.9839 78.6122 44.087C78.3997 44.19 78.1667 44.2435 77.9305 44.2435C77.6943 44.2435 77.4613 44.19 77.2488 44.087C77.0363 43.9839 76.8499 43.8341 76.7036 43.6486L68.496 33.2406C68.367 33.0797 68.2711 32.8948 68.2139 32.6967C68.1567 32.4985 68.1393 32.291 68.1627 32.086C68.1861 31.8811 68.2498 31.6828 68.3502 31.5026C68.4506 31.3225 68.5857 31.1639 68.7477 31.0362C68.9096 30.9085 69.0953 30.8142 69.2939 30.7586C69.4926 30.703 69.7002 30.6872 69.905 30.7123C70.1097 30.7374 70.3074 30.8027 70.4868 30.9046C70.6662 31.0065 70.8236 31.1429 70.9499 31.3059L76.3675 38.1762V31.944C76.3644 29.1131 75.2384 26.399 73.2367 24.3973C71.2349 22.3955 68.5209 21.2696 65.69 21.2664H47.9165C47.5022 21.2663 47.1049 21.1016 46.8119 20.8086C46.519 20.5156 46.3544 20.1182 46.3544 19.7039ZM47.8036 76.032H31.9443C29.1133 76.0288 26.3992 74.9027 24.3975 72.9009C22.3958 70.899 21.2698 68.1849 21.2667 65.3539V50.7854L26.6847 57.6559C26.9413 57.9813 27.3167 58.1914 27.7282 58.2401C28.1398 58.2887 28.5538 58.1719 28.8792 57.9152C29.2046 57.6586 29.4148 57.2832 29.4634 56.8717C29.5121 56.4601 29.3952 56.0461 29.1386 55.7207L20.9308 45.3125C20.7846 45.127 20.5982 44.977 20.3856 44.8739C20.173 44.7708 19.9399 44.7172 19.7036 44.7172C19.4674 44.7172 19.2342 44.7708 19.0217 44.8739C18.8091 44.977 18.6227 45.127 18.4765 45.3125L10.2697 55.7209C10.013 56.0463 9.89615 56.4603 9.94478 56.8719C9.9934 57.2835 10.2035 57.6589 10.5289 57.9155C10.8543 58.1722 11.2684 58.289 11.68 58.2404C12.0915 58.1918 12.4669 57.9817 12.7236 57.6563L18.1413 50.7859V65.3535C18.1454 69.013 19.6008 72.5214 22.1884 75.1091C24.776 77.6968 28.2844 79.1525 31.9439 79.1566H47.8033C48.2177 79.1566 48.6151 78.992 48.9081 78.699C49.2011 78.406 49.3658 78.0086 49.3658 77.5941C49.3658 77.1797 49.2011 76.7823 48.9081 76.4893C48.6151 76.1963 48.2177 76.0316 47.8033 76.0316L47.8036 76.032ZM99.9999 62.9191V86.5981C99.9999 86.8723 99.9277 87.1418 99.7906 87.3793C99.6535 87.6168 99.4562 87.814 99.2187 87.9512L78.7121 99.7906C78.4745 99.9278 78.2051 100 77.9308 100C77.6565 100 77.3871 99.9278 77.1496 99.7906L56.6431 87.9512C56.4056 87.814 56.2083 87.6168 56.0712 87.3793C55.9341 87.1418 55.8619 86.8723 55.8619 86.5981V62.9191C55.8619 62.6449 55.9341 62.3754 56.0712 62.1379C56.2083 61.9004 56.4056 61.7032 56.6431 61.566L77.1496 49.7266C77.3871 49.5894 77.6565 49.5172 77.9308 49.5172C78.2051 49.5172 78.4745 49.5894 78.7121 49.7266L99.2187 61.566C99.4562 61.7032 99.6535 61.9004 99.7906 62.1379C99.9277 62.3754 99.9999 62.6449 99.9999 62.9191ZM60.5494 62.9191L77.9308 72.9543L95.3124 62.9191L77.9308 52.8838L60.5494 62.9191ZM58.9869 85.6959L76.3683 95.7313V75.6606L58.9869 65.625V85.6959ZM96.8749 85.6959V65.625L79.4933 75.6604V95.7313L96.8749 85.6959ZM21.2663 30.7852V29.7541C23.0958 29.4658 24.6956 28.669 25.6921 27.5168C26.1519 26.9866 26.4925 26.3639 26.6908 25.6907C26.8892 25.0176 26.9407 24.3096 26.8419 23.6149C26.4812 20.6438 24.1702 18.7879 19.973 18.0988C16.3281 17.5 16.2572 16.0547 16.2304 15.509C16.1535 13.927 17.4669 13.0598 18.7216 12.7746C19.0389 12.7032 19.3626 12.6643 19.6878 12.6588H19.7035C19.7144 12.6588 19.7249 12.6574 19.7359 12.6572C21.1968 12.6463 22.716 13.3147 23.4183 14.9875C23.5814 15.3655 23.8872 15.6639 24.269 15.8177C24.6509 15.9716 25.0781 15.9685 25.4577 15.8091C25.8373 15.6497 26.1387 15.347 26.2964 14.9666C26.454 14.5863 26.4551 14.1591 26.2995 13.7779C25.8722 12.728 25.1868 11.8029 24.307 11.0882C23.4271 10.3736 22.3812 9.89238 21.266 9.68927V8.62247C21.266 8.20807 21.1013 7.81064 20.8083 7.51762C20.5153 7.22459 20.1179 7.05997 19.7035 7.05997C19.2891 7.05997 18.8916 7.22459 18.5986 7.51762C18.3056 7.81064 18.141 8.20807 18.141 8.62247V9.7047C18.1042 9.71251 18.0669 9.71935 18.0304 9.72774C14.9484 10.4268 12.9706 12.8111 13.1085 15.6608C13.2083 17.7201 14.3923 20.3496 19.4658 21.1826C23.0216 21.7662 23.6173 22.9904 23.7388 23.9914C23.7848 24.2533 23.7717 24.5222 23.7006 24.7784C23.6294 25.0347 23.5019 25.2718 23.3275 25.4725C22.6882 26.2117 21.3406 26.7119 19.8943 26.7461C18.2384 26.7873 16.1158 26.1002 15.6011 24.0363C15.5008 23.6342 15.2449 23.2884 14.8897 23.075C14.5344 22.8616 14.109 22.7981 13.7069 22.8983C13.3048 22.9986 12.959 23.2545 12.7456 23.6098C12.5322 23.965 12.4686 24.3905 12.5689 24.7926C13.2134 27.3752 15.3564 29.2174 18.1404 29.7293V30.7852C18.1404 31.1996 18.305 31.597 18.598 31.89C18.891 32.183 19.2885 32.3477 19.7029 32.3477C20.1173 32.3477 20.5147 32.183 20.8077 31.89C21.1007 31.597 21.2654 31.1996 21.2654 30.7852H21.2663ZM19.7038 39.4078C15.8068 39.4078 11.9973 38.2521 8.75699 36.087C5.51673 33.9219 2.99126 30.8446 1.49995 27.2441C0.00863333 23.6437 -0.381542 19.6819 0.37876 15.8598C1.13906 12.0376 3.01569 8.5267 5.77134 5.77108C8.52699 3.01546 12.0379 1.13886 15.8601 0.3786C19.6822 -0.381664 23.644 0.00855029 27.2444 1.4999C30.8448 2.99125 33.9222 5.51675 36.0872 8.75703C38.2523 11.9973 39.4079 15.8069 39.4079 19.7039C39.4019 24.9279 37.3241 29.9362 33.6301 33.6301C29.9362 37.324 24.9278 39.4019 19.7038 39.4078ZM19.7038 36.2828C22.9828 36.2828 26.1882 35.3105 28.9146 33.4888C31.641 31.6671 33.7659 29.0778 35.0208 26.0484C36.2756 23.019 36.6039 19.6855 35.9642 16.4695C35.3245 13.2535 33.7455 10.2995 31.4269 7.98086C29.1083 5.66226 26.1542 4.08327 22.9382 3.44357C19.7222 2.80387 16.3888 3.13218 13.3594 4.387C10.33 5.64182 7.7407 7.76678 5.91898 10.4932C4.09727 13.2196 3.12494 16.4249 3.12494 19.7039C3.13 24.0994 4.87833 28.3133 7.98638 31.4214C11.0944 34.5294 15.3084 36.2778 19.7038 36.2828Z" fill="#2D2D2D"/>
</g>
<defs>
<clipPath id="clip0_215_386">
<rect width="100" height="100" fill="white"/>
</clipPath>
</defs>
</svg>
